<svg width="21" height="21" viewBox="0 0 21 21" fill="none" xmlns="http://www.w3.org/2000/svg">
<path d="M13.5 4.5C13.5 5.69347 13.0259 6.83807 12.182 7.68198C11.3381 8.52589 10.1935 9 9 9C7.80653 9 6.66193 8.52589 5.81802 7.68198C4.97411 6.83807 4.5 5.69347 4.5 4.5C4.5 3.30653 4.97411 2.16193 5.81802 1.31802C6.66193 0.474106 7.80653 0 9 0C10.1935 0 11.3381 0.474106 12.182 1.31802C13.0259 2.16193 13.5 3.30653 13.5 4.5ZM9 7.5C9.79565 7.5 10.5587 7.18393 11.1213 6.62132C11.6839 6.05871 12 5.29565 12 4.5C12 3.70435 11.6839 2.94129 11.1213 2.37868C10.5587 1.81607 9.79565 1.5 9 1.5C8.20435 1.5 7.44129 1.81607 6.87868 2.37868C6.31607 2.94129 6 3.70435 6 4.5C6 5.29565 6.31607 6.05871 6.87868 6.62132C7.44129 7.18393 8.20435 7.5 9 7.5ZM9.384 18C9.21192 17.5129 9.09665 17.0075 9.0405 16.494H1.5C1.5015 16.125 1.731 15.015 2.748 13.998C3.726 13.02 5.5665 12 9 12C9.39 12 9.7605 12.0135 10.11 12.0375C10.449 11.526 10.854 11.0625 11.316 10.6605C10.6155 10.557 9.846 10.5 9 10.5C1.5 10.5 0 15 0 16.5C0 18 1.5 18 1.5 18H9.384ZM14.829 11.19C15.099 10.2705 16.401 10.2705 16.6725 11.19L16.737 11.412C16.7773 11.5497 16.8479 11.6766 16.9437 11.7834C17.0395 11.8903 17.1581 11.9742 17.2906 12.0292C17.4231 12.0842 17.5663 12.1087 17.7096 12.1011C17.8528 12.0934 17.9926 12.0538 18.1185 11.985L18.3225 11.874C19.164 11.415 20.085 12.336 19.6275 13.1775L19.515 13.3815C19.4465 13.5074 19.4071 13.647 19.3996 13.7901C19.3921 13.9332 19.4167 14.0761 19.4716 14.2085C19.5266 14.3408 19.6105 14.4592 19.7171 14.5549C19.8238 14.6506 19.9505 14.7212 20.088 14.7615L20.3115 14.829C21.2295 15.099 21.2295 16.401 20.3115 16.6725L20.0865 16.737C19.9491 16.7776 19.8224 16.8485 19.716 16.9445C19.6095 17.0404 19.5259 17.159 19.4712 17.2915C19.4165 17.424 19.3922 17.567 19.4001 17.7101C19.4079 17.8532 19.4477 17.9928 19.5165 18.1185L19.6275 18.3225C20.085 19.164 19.164 20.085 18.3225 19.6275L18.1185 19.515C17.9926 19.4465 17.853 19.4071 17.7099 19.3996C17.5668 19.3921 17.4239 19.4167 17.2915 19.4716C17.1592 19.5266 17.0408 19.6105 16.9451 19.7171C16.8494 19.8238 16.7788 19.9505 16.7385 20.088L16.671 20.3115C16.401 21.2295 15.099 21.2295 14.8275 20.3115L14.763 20.0865C14.7224 19.9491 14.6515 19.8224 14.5555 19.716C14.4596 19.6095 14.341 19.5259 14.2085 19.4712C14.076 19.4165 13.933 19.3922 13.7899 19.4001C13.6468 19.4079 13.5072 19.4477 13.3815 19.5165L13.1775 19.6275C12.336 20.085 11.415 19.164 11.8725 18.3225L11.985 18.1185C12.0535 17.9926 12.0929 17.853 12.1004 17.7099C12.1079 17.5668 12.0833 17.4239 12.0284 17.2915C11.9734 17.1592 11.8895 17.0408 11.7829 16.9451C11.6762 16.8494 11.5495 16.7788 11.412 16.7385L11.19 16.671C10.2705 16.401 10.2705 15.099 11.19 14.8275L11.412 14.763C11.5497 14.7227 11.6766 14.6521 11.7834 14.5563C11.8903 14.4605 11.9742 14.3419 12.0292 14.2094C12.0842 14.0769 12.1087 13.9337 12.1011 13.7904C12.0934 13.6472 12.0538 13.5074 11.985 13.3815L11.874 13.1775C11.415 12.336 12.336 11.415 13.1775 11.8725L13.3815 11.985C13.5074 12.0535 13.647 12.0929 13.7901 12.1004C13.9332 12.1079 14.0761 12.0833 14.2085 12.0284C14.3408 11.9734 14.4592 11.8895 14.5549 11.7829C14.6506 11.6762 14.7212 11.5495 14.7615 11.412L14.829 11.19ZM18 15.75C18 15.4545 17.9418 15.1619 17.8287 14.889C17.7157 14.616 17.5499 14.3679 17.341 14.159C17.1321 13.9501 16.884 13.7843 16.611 13.6713C16.3381 13.5582 16.0455 13.5 15.75 13.5C15.4545 13.5 15.1619 13.5582 14.889 13.6713C14.616 13.7843 14.3679 13.9501 14.159 14.159C13.9501 14.3679 13.7843 14.616 13.6713 14.889C13.5582 15.1619 13.5 15.4545 13.5 15.75C13.5 16.3467 13.7371 16.919 14.159 17.341C14.581 17.7629 15.1533 18 15.75 18C16.3467 18 16.919 17.7629 17.341 17.341C17.7629 16.919 18 16.3467 18 15.75Z" fill="#00C796"/>
</svg>
