<svg width="115" height="112" viewBox="0 0 115 112" fill="none" xmlns="http://www.w3.org/2000/svg">
<ellipse cx="57.1915" cy="56" rx="57.1915" ry="56" fill="#ADADAD"/>
<path fill-rule="evenodd" clip-rule="evenodd" d="M40.9065 36.7979C40.9065 27.1955 48.4407 19.0703 58.1417 19.0703C67.8426 19.0703 75.3768 27.1955 75.3768 36.7979C75.3768 46.4004 67.8426 54.5255 58.1417 54.5255C48.4407 54.5255 40.9065 46.4004 40.9065 36.7979Z" fill="white"/>
<path fill-rule="evenodd" clip-rule="evenodd" d="M58.2106 48.9531C42.3297 48.9531 28.5957 61.1212 28.5957 77.3468L28.6056 88.0228C28.6069 89.3262 29.1249 90.576 30.0461 91.4982C30.9673 92.4203 32.2166 92.9396 33.52 92.9422H82.7634C84.0694 92.9422 85.3219 92.4234 86.2454 91.4999C87.1689 90.5764 87.6877 89.3239 87.6877 88.0179V77.3468C87.6877 61.1556 74.1212 48.9531 58.2106 48.9531Z" fill="white"/>
</svg>
