<svg width="24" height="24" viewBox="0 0 24 24" fill="none" xmlns="http://www.w3.org/2000/svg">
<path d="M22.6562 6.97452H16.9275V1.24585L22.6562 6.97452ZM23.2809 10.1512V18.6225C23.2809 19.3178 23.144 20.0062 22.8779 20.6486C22.6118 21.291 22.2218 21.8746 21.7302 22.3663C21.2386 22.8579 20.6549 23.2479 20.0125 23.514C19.3702 23.7801 18.6817 23.917 17.9864 23.917H8.45626C6.59421 23.9137 4.78513 23.297 3.3088 22.1623C1.83246 21.0275 0.771135 19.438 0.288955 17.6394C-0.193225 15.8409 -0.0693905 13.9336 0.641306 12.2125C1.352 10.4914 2.60996 9.05246 4.22064 8.11814V5.91562C4.22064 4.51142 4.77845 3.16474 5.77137 2.17182C6.76428 1.17891 8.11097 0.621094 9.51516 0.621094H13.7508C14.0316 0.621094 14.301 0.732657 14.4995 0.93124C14.6981 1.12982 14.8097 1.39916 14.8097 1.68V6.97452C14.8097 7.5362 15.0328 8.07488 15.43 8.47204C15.8271 8.86921 16.3658 9.09233 16.9275 9.09233H22.222C22.5029 9.09233 22.7722 9.2039 22.9708 9.40248C23.1694 9.60106 23.2809 9.8704 23.2809 10.1512ZM8.45626 21.7992C9.71285 21.7992 10.9412 21.4266 11.986 20.7284C13.0308 20.0303 13.8452 19.0381 14.3261 17.8771C14.8069 16.7162 14.9328 15.4387 14.6876 14.2063C14.4425 12.9738 13.8374 11.8418 12.9488 10.9532C12.0603 10.0647 10.9282 9.45956 9.69575 9.21441C8.4633 8.96926 7.18584 9.09508 6.0249 9.57596C4.86397 10.0568 3.8717 10.8712 3.17357 11.916C2.47545 12.9608 2.10283 14.1892 2.10283 15.4458C2.10283 17.1308 2.7722 18.7468 3.9637 19.9383C5.1552 21.1298 6.77122 21.7992 8.45626 21.7992Z" fill="#00C796"/>
<path d="M4.93213 14.0684H4.85767V14.1429V14.9991V15.0736H4.93213H5.7139V15.7809H4.93213H4.85767V15.8553V16.7116V16.786H4.93213H5.7139V19.2802V19.3547H5.78835H6.64458H6.71903V19.2802V16.786H8.55785L10.0048 19.3172L10.0263 19.3547H10.0695H10.9257H11.0002V19.2802V16.786H11.7819H11.8564V16.7116V15.8553V15.7809H11.7819H11.0002V15.0736H11.7819H11.8564V14.9991V14.1429V14.0684H11.7819H11.0002V11.5742V11.4998H10.9257H10.0695H9.99502V11.5742V14.0684H8.15198L6.70926 11.5373L6.68784 11.4998H6.64458H5.78835H5.7139V11.5742V14.0684H4.93213ZM6.71903 13.5789L6.9998 14.0684H6.71903V13.5789ZM7.98058 15.7809H6.71903V15.0736H7.57741L7.98058 15.7809ZM9.70584 16.786H9.99502V17.2889L9.70584 16.786ZM9.13217 15.7809L8.72546 15.0736H9.99502V15.7809H9.13217Z" fill="#00C796" stroke="#00C796" stroke-width="0.148909"/>
</svg>
