<svg width="26" height="26" viewBox="0 0 26 26" fill="none" xmlns="http://www.w3.org/2000/svg">
<mask id="path-1-outside-1_3938_60152" maskUnits="userSpaceOnUse" x="0" y="0" width="26" height="26" fill="black">
<rect fill="white" width="26" height="26"/>
<path d="M20.2029 11.2306V3.85134C20.2029 2.27919 18.9166 1 17.3356 1H2.6044C1.71963 1 1 1.71563 1 2.59547V3.85134C1 4.03935 1.15292 4.19142 1.34198 4.19142H3.52482L3.50773 20.3103C3.50675 21.0628 3.80525 21.7746 4.34803 22.3148C4.89667 22.8614 5.62315 23.1621 6.39261 23.1621H13.1024C14.3667 24.3033 16.0439 25 17.8823 25C21.8068 25 25 21.8246 25 17.9219C24.9995 14.8272 22.9916 12.1901 20.2029 11.2306ZM1.68397 2.59547C1.68397 2.09069 2.09679 1.68016 2.6044 1.68016C3.112 1.68016 3.52482 2.09069 3.52482 2.59547V3.51126H1.68397V2.59547ZM4.83169 21.8343C4.41838 21.4228 4.19121 20.8821 4.19169 20.3113L4.20928 3.85182C4.20928 3.85182 4.20928 3.85182 4.20928 3.85134V2.59547C4.20928 2.2549 4.10131 1.93911 3.91762 1.68016H17.3356C18.5394 1.68016 19.519 2.65425 19.519 3.85134V11.0334C18.9933 10.91 18.4451 10.8439 17.8818 10.8439C13.9573 10.8439 10.7642 14.0193 10.7642 17.9219C10.7642 19.6578 11.3963 21.2494 12.4428 22.4819H6.39261C5.80586 22.4819 5.25136 22.2517 4.83169 21.8343ZM17.8818 24.3198C14.3345 24.3198 11.4481 21.4496 11.4481 17.9219C11.4481 14.3943 14.3345 11.524 17.8818 11.524C21.4292 11.524 24.3155 14.3943 24.3155 17.9219C24.3155 21.4496 21.4292 24.3198 17.8818 24.3198ZM23.6125 17.5299L22.1478 14.0849C22.0975 13.9658 22.0032 13.8735 21.8826 13.8249C21.7619 13.7764 21.63 13.7773 21.5103 13.8274L20.8136 14.1203C20.5977 14.2112 20.4819 14.44 20.5259 14.6601C20.0163 14.7879 19.5302 14.6742 19.0568 14.5629C18.5419 14.4415 18.0098 14.3161 17.5242 14.561C17.513 14.5663 17.5022 14.5726 17.492 14.5794C17.3005 14.7038 17.1383 14.8267 16.9956 14.9428C16.8148 14.8738 16.6214 14.8899 16.465 14.9025C16.2242 14.9224 15.9765 14.9428 15.6619 14.7626C15.6814 14.6863 15.6819 14.6057 15.6624 14.527C15.6311 14.4016 15.5529 14.2957 15.4415 14.2287L14.7942 13.84C14.6833 13.7734 14.5524 13.7535 14.4263 13.7846C14.3003 13.8157 14.1938 13.8934 14.1264 14.0042L12.1819 17.2063C12.0432 17.4347 12.1174 17.7325 12.3471 17.8704L12.9944 18.2591C13.0711 18.3053 13.1571 18.3286 13.2445 18.3286C13.2836 18.3286 13.3232 18.3237 13.3623 18.3145C13.46 18.2902 13.546 18.2377 13.6109 18.1639C13.694 18.1809 13.7521 18.1979 13.7922 18.212L13.6021 18.4272C13.4453 18.605 13.3671 18.8329 13.3828 19.07C13.3979 19.307 13.5049 19.5232 13.6837 19.6792C13.8449 19.8201 14.0433 19.8915 14.2426 19.8983C14.2812 20.0863 14.3789 20.2559 14.526 20.3846C14.6779 20.5172 14.8665 20.5921 15.0658 20.6028C15.102 20.7981 15.2012 20.9744 15.3531 21.107C15.5065 21.2411 15.697 21.316 15.8988 21.3252C15.9354 21.5181 16.0341 21.6925 16.1846 21.8241C16.3483 21.9675 16.5549 22.0442 16.7718 22.0442C16.7914 22.0442 16.8109 22.0437 16.831 22.0423C16.9731 22.033 17.1075 21.9913 17.2262 21.9213C17.3816 22.0224 17.5569 22.0724 17.7304 22.0724C17.9781 22.0724 18.2214 21.9718 18.3953 21.7746C18.4754 21.6842 18.5345 21.5802 18.5717 21.469C18.6181 21.4763 18.6645 21.4802 18.7109 21.4802C18.9591 21.4802 19.2058 21.3781 19.3817 21.1789C19.4652 21.0847 19.5243 20.9773 19.5605 20.8646C19.6015 20.8704 19.6431 20.8738 19.6846 20.8738C19.9323 20.8738 20.1795 20.7718 20.3554 20.5726C20.4487 20.4672 20.5112 20.3457 20.5454 20.2185C20.5649 20.2199 20.585 20.2209 20.6045 20.2209C20.8527 20.2209 21.0994 20.1189 21.2753 19.9197C21.5137 19.6496 21.5567 19.275 21.4165 18.967C21.6925 18.7872 21.8034 18.6113 21.8904 18.4729C21.9417 18.3913 21.9798 18.3305 22.0609 18.2742C22.1146 18.3558 22.1918 18.4199 22.2846 18.4573C22.3438 18.4811 22.4058 18.4933 22.4678 18.4933C22.5318 18.4933 22.5958 18.4806 22.6569 18.4549L23.3536 18.1619C23.6008 18.0599 23.7171 17.7757 23.6125 17.5299ZM15.8959 16.9513C15.9467 17.2865 15.9701 17.5041 15.8192 17.7378C15.762 17.8257 15.7493 17.9351 15.784 18.0342C15.8065 18.0978 15.8475 18.1527 15.9003 18.1926C15.8446 18.1799 15.7879 18.1726 15.7303 18.1707C15.6922 17.989 15.5979 17.817 15.4474 17.6853C15.1049 17.3861 14.5944 17.3958 14.2631 17.6917C14.1879 17.6392 14.097 17.5964 13.9886 17.5605L15.3277 15.3553C15.6736 15.5521 15.978 15.5958 16.2281 15.5958C15.7615 16.0622 15.8377 16.5699 15.8959 16.9513ZM15.0219 14.542L15.0214 14.5425C15.0219 14.542 15.0219 14.542 15.0219 14.542ZM13.1795 17.5755L12.8703 17.39L14.6105 14.5245L14.9198 14.7101L13.1795 17.5755ZM14.0658 19.0267C14.0624 18.9708 14.0799 18.9179 14.1166 18.8766L14.7009 18.2149C14.7414 18.1692 14.7996 18.1454 14.8582 18.1454C14.9071 18.1454 14.9564 18.1619 14.995 18.196C15.08 18.2703 15.0883 18.4039 15.014 18.4884L14.4449 19.1326L14.4297 19.1496C14.355 19.2342 14.2206 19.2429 14.1356 19.1686C14.0941 19.1331 14.0697 19.0826 14.0658 19.0267ZM14.908 19.7321C14.9046 19.6768 14.9222 19.6233 14.9588 19.5825L15.5285 18.9378C15.5339 18.932 15.5378 18.9257 15.5427 18.9198L15.5436 18.9208C15.5798 18.8795 15.6306 18.8552 15.6868 18.8513C15.7435 18.8479 15.7962 18.8659 15.8377 18.9019C15.9227 18.9762 15.9311 19.1098 15.8568 19.1943L15.6755 19.3994L15.6751 19.3998L15.272 19.856C15.2358 19.8973 15.185 19.9216 15.1289 19.9255C15.0732 19.9294 15.0194 19.9114 14.9779 19.875C14.9364 19.8381 14.9115 19.7875 14.908 19.7321ZM15.7347 20.4546C15.7312 20.3987 15.7488 20.3458 15.7855 20.3045L16.1885 19.8483C16.2633 19.7637 16.3976 19.7555 16.4826 19.8293C16.5676 19.9036 16.5764 20.0372 16.5017 20.1218L16.0986 20.578C16.0625 20.6193 16.0117 20.6436 15.9555 20.6474C15.8988 20.6509 15.846 20.6329 15.8045 20.5969C15.763 20.5605 15.7381 20.51 15.7347 20.4546ZM16.787 21.3645C16.7308 21.3679 16.6776 21.3504 16.636 21.314C16.5945 21.2781 16.5701 21.2275 16.5662 21.1717C16.5627 21.1158 16.5803 21.0628 16.617 21.0215L16.679 20.9511C16.7196 20.9054 16.7777 20.8816 16.8363 20.8816C16.8852 20.8816 16.9345 20.8981 16.9731 20.9321C17.0147 20.9681 17.0391 21.0186 17.043 21.0745C17.0464 21.1304 17.0288 21.1833 16.9922 21.2246L16.9301 21.2951C16.8935 21.3364 16.8427 21.3606 16.787 21.3645ZM17.8818 21.3266C17.831 21.3845 17.7519 21.4034 17.6762 21.3849C17.7162 21.2732 17.7333 21.1532 17.7255 21.0308C17.7226 20.9851 17.7152 20.9404 17.7055 20.8967L17.8633 21.0347C17.9043 21.0706 17.9292 21.1211 17.9326 21.1765C17.9361 21.2324 17.918 21.2853 17.8818 21.3266ZM20.7618 19.4722C20.6871 19.5568 20.5527 19.5655 20.4677 19.4912L20.2743 19.3221L18.9249 18.143C18.7827 18.0191 18.5668 18.0327 18.4422 18.1741C18.3176 18.315 18.3313 18.5302 18.4735 18.6541L19.8228 19.8332C19.9074 19.9075 19.9162 20.0411 19.8419 20.1252C19.7671 20.2097 19.6328 20.218 19.5478 20.1441L18.1549 18.9271C18.0128 18.8032 17.7968 18.8168 17.6722 18.9582C17.5477 19.0991 17.5613 19.3143 17.7035 19.4382L18.8487 20.439C18.9337 20.5134 18.942 20.647 18.8677 20.7315C18.793 20.816 18.6586 20.8248 18.5736 20.7504L18.3142 20.5236L17.8471 20.1155C17.705 19.9916 17.489 20.0052 17.3645 20.1466C17.319 20.1976 17.2926 20.2588 17.2834 20.3215C17.2526 20.3035 17.2208 20.2879 17.1886 20.2743C17.3024 19.9445 17.2135 19.5636 16.934 19.3192C16.8305 19.2288 16.7118 19.1676 16.5877 19.1331C16.6106 18.862 16.5095 18.5846 16.2887 18.3917C16.2374 18.347 16.1817 18.3096 16.1235 18.2781C16.191 18.2917 16.2589 18.2989 16.3278 18.2989C16.5862 18.2989 16.8505 18.2052 17.0865 18.0245C17.4622 17.7368 17.6874 17.2894 17.66 16.8852C17.6527 16.7783 17.7284 16.6301 17.7724 16.6155C17.7778 16.6151 17.7993 16.6199 17.8349 16.6398L20.7433 19.1812C20.8278 19.2541 20.8361 19.3877 20.7618 19.4722ZM21.3105 18.1148C21.2372 18.2314 21.1722 18.3349 20.9499 18.4554L18.2619 16.1064C18.2487 16.0947 18.2351 16.085 18.2209 16.0758V16.0753C18.217 16.0729 18.2131 16.0709 18.2092 16.0685C18.2072 16.0675 18.2057 16.0666 18.2038 16.0656C17.9414 15.9048 17.6571 15.8917 17.4211 16.0301C17.1021 16.2177 16.956 16.6243 16.9765 16.9294C16.9883 17.1048 16.8588 17.3385 16.6683 17.4842C16.6526 17.4964 16.6316 17.5114 16.6062 17.527C16.637 17.2811 16.6023 17.0513 16.5715 16.8492C16.5114 16.4552 16.4787 16.2381 16.8271 15.9747C16.9282 15.8985 17.0308 15.8091 17.1387 15.7148C17.3332 15.5453 17.5525 15.3538 17.8486 15.16C18.1095 15.0385 18.4759 15.1245 18.8985 15.2246C19.4315 15.3504 20.0784 15.5025 20.7843 15.2955L21.7844 17.6479C21.5347 17.7859 21.418 17.9433 21.3105 18.1148ZM22.5729 17.7538L21.2621 14.6703L21.5948 14.5304L22.9056 17.6139L22.5729 17.7538ZM8.37954 9.03903C10.154 9.03903 11.5971 7.60389 11.5971 5.83935C11.5971 4.07482 10.154 2.63968 8.37954 2.63968C6.60513 2.63968 5.16195 4.07482 5.16195 5.83935C5.16195 7.60389 6.60513 9.03903 8.37954 9.03903ZM8.37954 3.31984C9.77679 3.31984 10.9132 4.44988 10.9132 5.83935C10.9132 7.22883 9.77679 8.35887 8.37954 8.35887C6.98229 8.35887 5.84592 7.22883 5.84592 5.83935C5.84592 4.44988 6.98229 3.31984 8.37954 3.31984ZM12.3363 6.84162C12.3363 6.6536 12.4892 6.50154 12.6783 6.50154H18.0768C18.2658 6.50154 18.4187 6.6536 18.4187 6.84162C18.4187 7.02964 18.2658 7.1817 18.0768 7.1817H12.6783C12.4897 7.1817 12.3363 7.02964 12.3363 6.84162ZM14.3452 10.5208C14.3452 10.7088 14.1923 10.8609 14.0032 10.8609H6.27927C6.0902 10.8609 5.93728 10.7088 5.93728 10.5208C5.93728 10.3328 6.0902 10.1807 6.27927 10.1807H14.0032C14.1918 10.1807 14.3452 10.3328 14.3452 10.5208ZM11.1091 13.3566C11.1091 13.5446 10.9562 13.6967 10.7671 13.6967H6.27878C6.08971 13.6967 5.93679 13.5446 5.93679 13.3566C5.93679 13.1686 6.08971 13.0165 6.27878 13.0165H10.7671C10.9562 13.0165 11.1091 13.1691 11.1091 13.3566ZM9.81637 16.0544C10.0054 16.0544 10.1584 16.2065 10.1584 16.3945C10.1584 16.5825 10.0054 16.7346 9.81637 16.7346H6.27927C6.0902 16.7346 5.93728 16.5825 5.93728 16.3945C5.93728 16.2065 6.0902 16.0544 6.27927 16.0544H9.81637ZM10.3665 19.8444C10.3665 20.0324 10.2136 20.1845 10.0245 20.1845H6.27927C6.0902 20.1845 5.93728 20.0324 5.93728 19.8444C5.93728 19.6564 6.0902 19.5043 6.27927 19.5043H10.0245C10.2131 19.5043 10.3665 19.6564 10.3665 19.8444ZM7.36776 5.17328C7.36776 4.73798 7.64769 4.36777 8.03756 4.22785V4.17976C8.03756 3.99174 8.19047 3.83968 8.37954 3.83968C8.56861 3.83968 8.72153 3.99174 8.72153 4.17976V4.22737C8.94724 4.3085 9.14168 4.46883 9.26284 4.68405C9.35518 4.84777 9.29606 5.05522 9.13142 5.14704C8.96629 5.23887 8.75817 5.18008 8.66583 5.01636C8.60721 4.91239 8.49728 4.84777 8.37905 4.84777C8.19829 4.84777 8.05124 4.99401 8.05124 5.17377C8.05124 5.35352 8.19829 5.49976 8.37905 5.49976C8.93698 5.49976 9.39084 5.95109 9.39084 6.50591C9.39084 6.94122 9.1109 7.3119 8.72104 7.45134V7.49943C8.72104 7.68745 8.56812 7.83951 8.37905 7.83951C8.18998 7.83951 8.03707 7.68745 8.03707 7.49943V7.45182C7.81087 7.37069 7.61692 7.21036 7.49576 6.99514C7.40342 6.83142 7.46253 6.62397 7.62718 6.53215C7.79182 6.44032 8.00043 6.49911 8.09276 6.66283C8.15139 6.7668 8.26131 6.83142 8.37905 6.83142C8.55982 6.83142 8.70687 6.68518 8.70687 6.50543C8.70687 6.32567 8.55982 6.17943 8.37905 6.17943C7.82162 6.17943 7.36776 5.7281 7.36776 5.17328Z"/>
</mask>
<path d="M20.2029 11.2306V3.85134C20.2029 2.27919 18.9166 1 17.3356 1H2.6044C1.71963 1 1 1.71563 1 2.59547V3.85134C1 4.03935 1.15292 4.19142 1.34198 4.19142H3.52482L3.50773 20.3103C3.50675 21.0628 3.80525 21.7746 4.34803 22.3148C4.89667 22.8614 5.62315 23.1621 6.39261 23.1621H13.1024C14.3667 24.3033 16.0439 25 17.8823 25C21.8068 25 25 21.8246 25 17.9219C24.9995 14.8272 22.9916 12.1901 20.2029 11.2306ZM1.68397 2.59547C1.68397 2.09069 2.09679 1.68016 2.6044 1.68016C3.112 1.68016 3.52482 2.09069 3.52482 2.59547V3.51126H1.68397V2.59547ZM4.83169 21.8343C4.41838 21.4228 4.19121 20.8821 4.19169 20.3113L4.20928 3.85182C4.20928 3.85182 4.20928 3.85182 4.20928 3.85134V2.59547C4.20928 2.2549 4.10131 1.93911 3.91762 1.68016H17.3356C18.5394 1.68016 19.519 2.65425 19.519 3.85134V11.0334C18.9933 10.91 18.4451 10.8439 17.8818 10.8439C13.9573 10.8439 10.7642 14.0193 10.7642 17.9219C10.7642 19.6578 11.3963 21.2494 12.4428 22.4819H6.39261C5.80586 22.4819 5.25136 22.2517 4.83169 21.8343ZM17.8818 24.3198C14.3345 24.3198 11.4481 21.4496 11.4481 17.9219C11.4481 14.3943 14.3345 11.524 17.8818 11.524C21.4292 11.524 24.3155 14.3943 24.3155 17.9219C24.3155 21.4496 21.4292 24.3198 17.8818 24.3198ZM23.6125 17.5299L22.1478 14.0849C22.0975 13.9658 22.0032 13.8735 21.8826 13.8249C21.7619 13.7764 21.63 13.7773 21.5103 13.8274L20.8136 14.1203C20.5977 14.2112 20.4819 14.44 20.5259 14.6601C20.0163 14.7879 19.5302 14.6742 19.0568 14.5629C18.5419 14.4415 18.0098 14.3161 17.5242 14.561C17.513 14.5663 17.5022 14.5726 17.492 14.5794C17.3005 14.7038 17.1383 14.8267 16.9956 14.9428C16.8148 14.8738 16.6214 14.8899 16.465 14.9025C16.2242 14.9224 15.9765 14.9428 15.6619 14.7626C15.6814 14.6863 15.6819 14.6057 15.6624 14.527C15.6311 14.4016 15.5529 14.2957 15.4415 14.2287L14.7942 13.84C14.6833 13.7734 14.5524 13.7535 14.4263 13.7846C14.3003 13.8157 14.1938 13.8934 14.1264 14.0042L12.1819 17.2063C12.0432 17.4347 12.1174 17.7325 12.3471 17.8704L12.9944 18.2591C13.0711 18.3053 13.1571 18.3286 13.2445 18.3286C13.2836 18.3286 13.3232 18.3237 13.3623 18.3145C13.46 18.2902 13.546 18.2377 13.6109 18.1639C13.694 18.1809 13.7521 18.1979 13.7922 18.212L13.6021 18.4272C13.4453 18.605 13.3671 18.8329 13.3828 19.07C13.3979 19.307 13.5049 19.5232 13.6837 19.6792C13.8449 19.8201 14.0433 19.8915 14.2426 19.8983C14.2812 20.0863 14.3789 20.2559 14.526 20.3846C14.6779 20.5172 14.8665 20.5921 15.0658 20.6028C15.102 20.7981 15.2012 20.9744 15.3531 21.107C15.5065 21.2411 15.697 21.316 15.8988 21.3252C15.9354 21.5181 16.0341 21.6925 16.1846 21.8241C16.3483 21.9675 16.5549 22.0442 16.7718 22.0442C16.7914 22.0442 16.8109 22.0437 16.831 22.0423C16.9731 22.033 17.1075 21.9913 17.2262 21.9213C17.3816 22.0224 17.5569 22.0724 17.7304 22.0724C17.9781 22.0724 18.2214 21.9718 18.3953 21.7746C18.4754 21.6842 18.5345 21.5802 18.5717 21.469C18.6181 21.4763 18.6645 21.4802 18.7109 21.4802C18.9591 21.4802 19.2058 21.3781 19.3817 21.1789C19.4652 21.0847 19.5243 20.9773 19.5605 20.8646C19.6015 20.8704 19.6431 20.8738 19.6846 20.8738C19.9323 20.8738 20.1795 20.7718 20.3554 20.5726C20.4487 20.4672 20.5112 20.3457 20.5454 20.2185C20.5649 20.2199 20.585 20.2209 20.6045 20.2209C20.8527 20.2209 21.0994 20.1189 21.2753 19.9197C21.5137 19.6496 21.5567 19.275 21.4165 18.967C21.6925 18.7872 21.8034 18.6113 21.8904 18.4729C21.9417 18.3913 21.9798 18.3305 22.0609 18.2742C22.1146 18.3558 22.1918 18.4199 22.2846 18.4573C22.3438 18.4811 22.4058 18.4933 22.4678 18.4933C22.5318 18.4933 22.5958 18.4806 22.6569 18.4549L23.3536 18.1619C23.6008 18.0599 23.7171 17.7757 23.6125 17.5299ZM15.8959 16.9513C15.9467 17.2865 15.9701 17.5041 15.8192 17.7378C15.762 17.8257 15.7493 17.9351 15.784 18.0342C15.8065 18.0978 15.8475 18.1527 15.9003 18.1926C15.8446 18.1799 15.7879 18.1726 15.7303 18.1707C15.6922 17.989 15.5979 17.817 15.4474 17.6853C15.1049 17.3861 14.5944 17.3958 14.2631 17.6917C14.1879 17.6392 14.097 17.5964 13.9886 17.5605L15.3277 15.3553C15.6736 15.5521 15.978 15.5958 16.2281 15.5958C15.7615 16.0622 15.8377 16.5699 15.8959 16.9513ZM15.0219 14.542L15.0214 14.5425C15.0219 14.542 15.0219 14.542 15.0219 14.542ZM13.1795 17.5755L12.8703 17.39L14.6105 14.5245L14.9198 14.7101L13.1795 17.5755ZM14.0658 19.0267C14.0624 18.9708 14.0799 18.9179 14.1166 18.8766L14.7009 18.2149C14.7414 18.1692 14.7996 18.1454 14.8582 18.1454C14.9071 18.1454 14.9564 18.1619 14.995 18.196C15.08 18.2703 15.0883 18.4039 15.014 18.4884L14.4449 19.1326L14.4297 19.1496C14.355 19.2342 14.2206 19.2429 14.1356 19.1686C14.0941 19.1331 14.0697 19.0826 14.0658 19.0267ZM14.908 19.7321C14.9046 19.6768 14.9222 19.6233 14.9588 19.5825L15.5285 18.9378C15.5339 18.932 15.5378 18.9257 15.5427 18.9198L15.5436 18.9208C15.5798 18.8795 15.6306 18.8552 15.6868 18.8513C15.7435 18.8479 15.7962 18.8659 15.8377 18.9019C15.9227 18.9762 15.9311 19.1098 15.8568 19.1943L15.6755 19.3994L15.6751 19.3998L15.272 19.856C15.2358 19.8973 15.185 19.9216 15.1289 19.9255C15.0732 19.9294 15.0194 19.9114 14.9779 19.875C14.9364 19.8381 14.9115 19.7875 14.908 19.7321ZM15.7347 20.4546C15.7312 20.3987 15.7488 20.3458 15.7855 20.3045L16.1885 19.8483C16.2633 19.7637 16.3976 19.7555 16.4826 19.8293C16.5676 19.9036 16.5764 20.0372 16.5017 20.1218L16.0986 20.578C16.0625 20.6193 16.0117 20.6436 15.9555 20.6474C15.8988 20.6509 15.846 20.6329 15.8045 20.5969C15.763 20.5605 15.7381 20.51 15.7347 20.4546ZM16.787 21.3645C16.7308 21.3679 16.6776 21.3504 16.636 21.314C16.5945 21.2781 16.5701 21.2275 16.5662 21.1717C16.5627 21.1158 16.5803 21.0628 16.617 21.0215L16.679 20.9511C16.7196 20.9054 16.7777 20.8816 16.8363 20.8816C16.8852 20.8816 16.9345 20.8981 16.9731 20.9321C17.0147 20.9681 17.0391 21.0186 17.043 21.0745C17.0464 21.1304 17.0288 21.1833 16.9922 21.2246L16.9301 21.2951C16.8935 21.3364 16.8427 21.3606 16.787 21.3645ZM17.8818 21.3266C17.831 21.3845 17.7519 21.4034 17.6762 21.3849C17.7162 21.2732 17.7333 21.1532 17.7255 21.0308C17.7226 20.9851 17.7152 20.9404 17.7055 20.8967L17.8633 21.0347C17.9043 21.0706 17.9292 21.1211 17.9326 21.1765C17.9361 21.2324 17.918 21.2853 17.8818 21.3266ZM20.7618 19.4722C20.6871 19.5568 20.5527 19.5655 20.4677 19.4912L20.2743 19.3221L18.9249 18.143C18.7827 18.0191 18.5668 18.0327 18.4422 18.1741C18.3176 18.315 18.3313 18.5302 18.4735 18.6541L19.8228 19.8332C19.9074 19.9075 19.9162 20.0411 19.8419 20.1252C19.7671 20.2097 19.6328 20.218 19.5478 20.1441L18.1549 18.9271C18.0128 18.8032 17.7968 18.8168 17.6722 18.9582C17.5477 19.0991 17.5613 19.3143 17.7035 19.4382L18.8487 20.439C18.9337 20.5134 18.942 20.647 18.8677 20.7315C18.793 20.816 18.6586 20.8248 18.5736 20.7504L18.3142 20.5236L17.8471 20.1155C17.705 19.9916 17.489 20.0052 17.3645 20.1466C17.319 20.1976 17.2926 20.2588 17.2834 20.3215C17.2526 20.3035 17.2208 20.2879 17.1886 20.2743C17.3024 19.9445 17.2135 19.5636 16.934 19.3192C16.8305 19.2288 16.7118 19.1676 16.5877 19.1331C16.6106 18.862 16.5095 18.5846 16.2887 18.3917C16.2374 18.347 16.1817 18.3096 16.1235 18.2781C16.191 18.2917 16.2589 18.2989 16.3278 18.2989C16.5862 18.2989 16.8505 18.2052 17.0865 18.0245C17.4622 17.7368 17.6874 17.2894 17.66 16.8852C17.6527 16.7783 17.7284 16.6301 17.7724 16.6155C17.7778 16.6151 17.7993 16.6199 17.8349 16.6398L20.7433 19.1812C20.8278 19.2541 20.8361 19.3877 20.7618 19.4722ZM21.3105 18.1148C21.2372 18.2314 21.1722 18.3349 20.9499 18.4554L18.2619 16.1064C18.2487 16.0947 18.2351 16.085 18.2209 16.0758V16.0753C18.217 16.0729 18.2131 16.0709 18.2092 16.0685C18.2072 16.0675 18.2057 16.0666 18.2038 16.0656C17.9414 15.9048 17.6571 15.8917 17.4211 16.0301C17.1021 16.2177 16.956 16.6243 16.9765 16.9294C16.9883 17.1048 16.8588 17.3385 16.6683 17.4842C16.6526 17.4964 16.6316 17.5114 16.6062 17.527C16.637 17.2811 16.6023 17.0513 16.5715 16.8492C16.5114 16.4552 16.4787 16.2381 16.8271 15.9747C16.9282 15.8985 17.0308 15.8091 17.1387 15.7148C17.3332 15.5453 17.5525 15.3538 17.8486 15.16C18.1095 15.0385 18.4759 15.1245 18.8985 15.2246C19.4315 15.3504 20.0784 15.5025 20.7843 15.2955L21.7844 17.6479C21.5347 17.7859 21.418 17.9433 21.3105 18.1148ZM22.5729 17.7538L21.2621 14.6703L21.5948 14.5304L22.9056 17.6139L22.5729 17.7538ZM8.37954 9.03903C10.154 9.03903 11.5971 7.60389 11.5971 5.83935C11.5971 4.07482 10.154 2.63968 8.37954 2.63968C6.60513 2.63968 5.16195 4.07482 5.16195 5.83935C5.16195 7.60389 6.60513 9.03903 8.37954 9.03903ZM8.37954 3.31984C9.77679 3.31984 10.9132 4.44988 10.9132 5.83935C10.9132 7.22883 9.77679 8.35887 8.37954 8.35887C6.98229 8.35887 5.84592 7.22883 5.84592 5.83935C5.84592 4.44988 6.98229 3.31984 8.37954 3.31984ZM12.3363 6.84162C12.3363 6.6536 12.4892 6.50154 12.6783 6.50154H18.0768C18.2658 6.50154 18.4187 6.6536 18.4187 6.84162C18.4187 7.02964 18.2658 7.1817 18.0768 7.1817H12.6783C12.4897 7.1817 12.3363 7.02964 12.3363 6.84162ZM14.3452 10.5208C14.3452 10.7088 14.1923 10.8609 14.0032 10.8609H6.27927C6.0902 10.8609 5.93728 10.7088 5.93728 10.5208C5.93728 10.3328 6.0902 10.1807 6.27927 10.1807H14.0032C14.1918 10.1807 14.3452 10.3328 14.3452 10.5208ZM11.1091 13.3566C11.1091 13.5446 10.9562 13.6967 10.7671 13.6967H6.27878C6.08971 13.6967 5.93679 13.5446 5.93679 13.3566C5.93679 13.1686 6.08971 13.0165 6.27878 13.0165H10.7671C10.9562 13.0165 11.1091 13.1691 11.1091 13.3566ZM9.81637 16.0544C10.0054 16.0544 10.1584 16.2065 10.1584 16.3945C10.1584 16.5825 10.0054 16.7346 9.81637 16.7346H6.27927C6.0902 16.7346 5.93728 16.5825 5.93728 16.3945C5.93728 16.2065 6.0902 16.0544 6.27927 16.0544H9.81637ZM10.3665 19.8444C10.3665 20.0324 10.2136 20.1845 10.0245 20.1845H6.27927C6.0902 20.1845 5.93728 20.0324 5.93728 19.8444C5.93728 19.6564 6.0902 19.5043 6.27927 19.5043H10.0245C10.2131 19.5043 10.3665 19.6564 10.3665 19.8444ZM7.36776 5.17328C7.36776 4.73798 7.64769 4.36777 8.03756 4.22785V4.17976C8.03756 3.99174 8.19047 3.83968 8.37954 3.83968C8.56861 3.83968 8.72153 3.99174 8.72153 4.17976V4.22737C8.94724 4.3085 9.14168 4.46883 9.26284 4.68405C9.35518 4.84777 9.29606 5.05522 9.13142 5.14704C8.96629 5.23887 8.75817 5.18008 8.66583 5.01636C8.60721 4.91239 8.49728 4.84777 8.37905 4.84777C8.19829 4.84777 8.05124 4.99401 8.05124 5.17377C8.05124 5.35352 8.19829 5.49976 8.37905 5.49976C8.93698 5.49976 9.39084 5.95109 9.39084 6.50591C9.39084 6.94122 9.1109 7.3119 8.72104 7.45134V7.49943C8.72104 7.68745 8.56812 7.83951 8.37905 7.83951C8.18998 7.83951 8.03707 7.68745 8.03707 7.49943V7.45182C7.81087 7.37069 7.61692 7.21036 7.49576 6.99514C7.40342 6.83142 7.46253 6.62397 7.62718 6.53215C7.79182 6.44032 8.00043 6.49911 8.09276 6.66283C8.15139 6.7668 8.26131 6.83142 8.37905 6.83142C8.55982 6.83142 8.70687 6.68518 8.70687 6.50543C8.70687 6.32567 8.55982 6.17943 8.37905 6.17943C7.82162 6.17943 7.36776 5.7281 7.36776 5.17328Z" fill="#00C796"/>
<path d="M20.2029 11.2306V3.85134C20.2029 2.27919 18.9166 1 17.3356 1H2.6044C1.71963 1 1 1.71563 1 2.59547V3.85134C1 4.03935 1.15292 4.19142 1.34198 4.19142H3.52482L3.50773 20.3103C3.50675 21.0628 3.80525 21.7746 4.34803 22.3148C4.89667 22.8614 5.62315 23.1621 6.39261 23.1621H13.1024C14.3667 24.3033 16.0439 25 17.8823 25C21.8068 25 25 21.8246 25 17.9219C24.9995 14.8272 22.9916 12.1901 20.2029 11.2306ZM1.68397 2.59547C1.68397 2.09069 2.09679 1.68016 2.6044 1.68016C3.112 1.68016 3.52482 2.09069 3.52482 2.59547V3.51126H1.68397V2.59547ZM4.83169 21.8343C4.41838 21.4228 4.19121 20.8821 4.19169 20.3113L4.20928 3.85182C4.20928 3.85182 4.20928 3.85182 4.20928 3.85134V2.59547C4.20928 2.2549 4.10131 1.93911 3.91762 1.68016H17.3356C18.5394 1.68016 19.519 2.65425 19.519 3.85134V11.0334C18.9933 10.91 18.4451 10.8439 17.8818 10.8439C13.9573 10.8439 10.7642 14.0193 10.7642 17.9219C10.7642 19.6578 11.3963 21.2494 12.4428 22.4819H6.39261C5.80586 22.4819 5.25136 22.2517 4.83169 21.8343ZM17.8818 24.3198C14.3345 24.3198 11.4481 21.4496 11.4481 17.9219C11.4481 14.3943 14.3345 11.524 17.8818 11.524C21.4292 11.524 24.3155 14.3943 24.3155 17.9219C24.3155 21.4496 21.4292 24.3198 17.8818 24.3198ZM23.6125 17.5299L22.1478 14.0849C22.0975 13.9658 22.0032 13.8735 21.8826 13.8249C21.7619 13.7764 21.63 13.7773 21.5103 13.8274L20.8136 14.1203C20.5977 14.2112 20.4819 14.44 20.5259 14.6601C20.0163 14.7879 19.5302 14.6742 19.0568 14.5629C18.5419 14.4415 18.0098 14.3161 17.5242 14.561C17.513 14.5663 17.5022 14.5726 17.492 14.5794C17.3005 14.7038 17.1383 14.8267 16.9956 14.9428C16.8148 14.8738 16.6214 14.8899 16.465 14.9025C16.2242 14.9224 15.9765 14.9428 15.6619 14.7626C15.6814 14.6863 15.6819 14.6057 15.6624 14.527C15.6311 14.4016 15.5529 14.2957 15.4415 14.2287L14.7942 13.84C14.6833 13.7734 14.5524 13.7535 14.4263 13.7846C14.3003 13.8157 14.1938 13.8934 14.1264 14.0042L12.1819 17.2063C12.0432 17.4347 12.1174 17.7325 12.3471 17.8704L12.9944 18.2591C13.0711 18.3053 13.1571 18.3286 13.2445 18.3286C13.2836 18.3286 13.3232 18.3237 13.3623 18.3145C13.46 18.2902 13.546 18.2377 13.6109 18.1639C13.694 18.1809 13.7521 18.1979 13.7922 18.212L13.6021 18.4272C13.4453 18.605 13.3671 18.8329 13.3828 19.07C13.3979 19.307 13.5049 19.5232 13.6837 19.6792C13.8449 19.8201 14.0433 19.8915 14.2426 19.8983C14.2812 20.0863 14.3789 20.2559 14.526 20.3846C14.6779 20.5172 14.8665 20.5921 15.0658 20.6028C15.102 20.7981 15.2012 20.9744 15.3531 21.107C15.5065 21.2411 15.697 21.316 15.8988 21.3252C15.9354 21.5181 16.0341 21.6925 16.1846 21.8241C16.3483 21.9675 16.5549 22.0442 16.7718 22.0442C16.7914 22.0442 16.8109 22.0437 16.831 22.0423C16.9731 22.033 17.1075 21.9913 17.2262 21.9213C17.3816 22.0224 17.5569 22.0724 17.7304 22.0724C17.9781 22.0724 18.2214 21.9718 18.3953 21.7746C18.4754 21.6842 18.5345 21.5802 18.5717 21.469C18.6181 21.4763 18.6645 21.4802 18.7109 21.4802C18.9591 21.4802 19.2058 21.3781 19.3817 21.1789C19.4652 21.0847 19.5243 20.9773 19.5605 20.8646C19.6015 20.8704 19.6431 20.8738 19.6846 20.8738C19.9323 20.8738 20.1795 20.7718 20.3554 20.5726C20.4487 20.4672 20.5112 20.3457 20.5454 20.2185C20.5649 20.2199 20.585 20.2209 20.6045 20.2209C20.8527 20.2209 21.0994 20.1189 21.2753 19.9197C21.5137 19.6496 21.5567 19.275 21.4165 18.967C21.6925 18.7872 21.8034 18.6113 21.8904 18.4729C21.9417 18.3913 21.9798 18.3305 22.0609 18.2742C22.1146 18.3558 22.1918 18.4199 22.2846 18.4573C22.3438 18.4811 22.4058 18.4933 22.4678 18.4933C22.5318 18.4933 22.5958 18.4806 22.6569 18.4549L23.3536 18.1619C23.6008 18.0599 23.7171 17.7757 23.6125 17.5299ZM15.8959 16.9513C15.9467 17.2865 15.9701 17.5041 15.8192 17.7378C15.762 17.8257 15.7493 17.9351 15.784 18.0342C15.8065 18.0978 15.8475 18.1527 15.9003 18.1926C15.8446 18.1799 15.7879 18.1726 15.7303 18.1707C15.6922 17.989 15.5979 17.817 15.4474 17.6853C15.1049 17.3861 14.5944 17.3958 14.2631 17.6917C14.1879 17.6392 14.097 17.5964 13.9886 17.5605L15.3277 15.3553C15.6736 15.5521 15.978 15.5958 16.2281 15.5958C15.7615 16.0622 15.8377 16.5699 15.8959 16.9513ZM15.0219 14.542L15.0214 14.5425C15.0219 14.542 15.0219 14.542 15.0219 14.542ZM13.1795 17.5755L12.8703 17.39L14.6105 14.5245L14.9198 14.7101L13.1795 17.5755ZM14.0658 19.0267C14.0624 18.9708 14.0799 18.9179 14.1166 18.8766L14.7009 18.2149C14.7414 18.1692 14.7996 18.1454 14.8582 18.1454C14.9071 18.1454 14.9564 18.1619 14.995 18.196C15.08 18.2703 15.0883 18.4039 15.014 18.4884L14.4449 19.1326L14.4297 19.1496C14.355 19.2342 14.2206 19.2429 14.1356 19.1686C14.0941 19.1331 14.0697 19.0826 14.0658 19.0267ZM14.908 19.7321C14.9046 19.6768 14.9222 19.6233 14.9588 19.5825L15.5285 18.9378C15.5339 18.932 15.5378 18.9257 15.5427 18.9198L15.5436 18.9208C15.5798 18.8795 15.6306 18.8552 15.6868 18.8513C15.7435 18.8479 15.7962 18.8659 15.8377 18.9019C15.9227 18.9762 15.9311 19.1098 15.8568 19.1943L15.6755 19.3994L15.6751 19.3998L15.272 19.856C15.2358 19.8973 15.185 19.9216 15.1289 19.9255C15.0732 19.9294 15.0194 19.9114 14.9779 19.875C14.9364 19.8381 14.9115 19.7875 14.908 19.7321ZM15.7347 20.4546C15.7312 20.3987 15.7488 20.3458 15.7855 20.3045L16.1885 19.8483C16.2633 19.7637 16.3976 19.7555 16.4826 19.8293C16.5676 19.9036 16.5764 20.0372 16.5017 20.1218L16.0986 20.578C16.0625 20.6193 16.0117 20.6436 15.9555 20.6474C15.8988 20.6509 15.846 20.6329 15.8045 20.5969C15.763 20.5605 15.7381 20.51 15.7347 20.4546ZM16.787 21.3645C16.7308 21.3679 16.6776 21.3504 16.636 21.314C16.5945 21.2781 16.5701 21.2275 16.5662 21.1717C16.5627 21.1158 16.5803 21.0628 16.617 21.0215L16.679 20.9511C16.7196 20.9054 16.7777 20.8816 16.8363 20.8816C16.8852 20.8816 16.9345 20.8981 16.9731 20.9321C17.0147 20.9681 17.0391 21.0186 17.043 21.0745C17.0464 21.1304 17.0288 21.1833 16.9922 21.2246L16.9301 21.2951C16.8935 21.3364 16.8427 21.3606 16.787 21.3645ZM17.8818 21.3266C17.831 21.3845 17.7519 21.4034 17.6762 21.3849C17.7162 21.2732 17.7333 21.1532 17.7255 21.0308C17.7226 20.9851 17.7152 20.9404 17.7055 20.8967L17.8633 21.0347C17.9043 21.0706 17.9292 21.1211 17.9326 21.1765C17.9361 21.2324 17.918 21.2853 17.8818 21.3266ZM20.7618 19.4722C20.6871 19.5568 20.5527 19.5655 20.4677 19.4912L20.2743 19.3221L18.9249 18.143C18.7827 18.0191 18.5668 18.0327 18.4422 18.1741C18.3176 18.315 18.3313 18.5302 18.4735 18.6541L19.8228 19.8332C19.9074 19.9075 19.9162 20.0411 19.8419 20.1252C19.7671 20.2097 19.6328 20.218 19.5478 20.1441L18.1549 18.9271C18.0128 18.8032 17.7968 18.8168 17.6722 18.9582C17.5477 19.0991 17.5613 19.3143 17.7035 19.4382L18.8487 20.439C18.9337 20.5134 18.942 20.647 18.8677 20.7315C18.793 20.816 18.6586 20.8248 18.5736 20.7504L18.3142 20.5236L17.8471 20.1155C17.705 19.9916 17.489 20.0052 17.3645 20.1466C17.319 20.1976 17.2926 20.2588 17.2834 20.3215C17.2526 20.3035 17.2208 20.2879 17.1886 20.2743C17.3024 19.9445 17.2135 19.5636 16.934 19.3192C16.8305 19.2288 16.7118 19.1676 16.5877 19.1331C16.6106 18.862 16.5095 18.5846 16.2887 18.3917C16.2374 18.347 16.1817 18.3096 16.1235 18.2781C16.191 18.2917 16.2589 18.2989 16.3278 18.2989C16.5862 18.2989 16.8505 18.2052 17.0865 18.0245C17.4622 17.7368 17.6874 17.2894 17.66 16.8852C17.6527 16.7783 17.7284 16.6301 17.7724 16.6155C17.7778 16.6151 17.7993 16.6199 17.8349 16.6398L20.7433 19.1812C20.8278 19.2541 20.8361 19.3877 20.7618 19.4722ZM21.3105 18.1148C21.2372 18.2314 21.1722 18.3349 20.9499 18.4554L18.2619 16.1064C18.2487 16.0947 18.2351 16.085 18.2209 16.0758V16.0753C18.217 16.0729 18.2131 16.0709 18.2092 16.0685C18.2072 16.0675 18.2057 16.0666 18.2038 16.0656C17.9414 15.9048 17.6571 15.8917 17.4211 16.0301C17.1021 16.2177 16.956 16.6243 16.9765 16.9294C16.9883 17.1048 16.8588 17.3385 16.6683 17.4842C16.6526 17.4964 16.6316 17.5114 16.6062 17.527C16.637 17.2811 16.6023 17.0513 16.5715 16.8492C16.5114 16.4552 16.4787 16.2381 16.8271 15.9747C16.9282 15.8985 17.0308 15.8091 17.1387 15.7148C17.3332 15.5453 17.5525 15.3538 17.8486 15.16C18.1095 15.0385 18.4759 15.1245 18.8985 15.2246C19.4315 15.3504 20.0784 15.5025 20.7843 15.2955L21.7844 17.6479C21.5347 17.7859 21.418 17.9433 21.3105 18.1148ZM22.5729 17.7538L21.2621 14.6703L21.5948 14.5304L22.9056 17.6139L22.5729 17.7538ZM8.37954 9.03903C10.154 9.03903 11.5971 7.60389 11.5971 5.83935C11.5971 4.07482 10.154 2.63968 8.37954 2.63968C6.60513 2.63968 5.16195 4.07482 5.16195 5.83935C5.16195 7.60389 6.60513 9.03903 8.37954 9.03903ZM8.37954 3.31984C9.77679 3.31984 10.9132 4.44988 10.9132 5.83935C10.9132 7.22883 9.77679 8.35887 8.37954 8.35887C6.98229 8.35887 5.84592 7.22883 5.84592 5.83935C5.84592 4.44988 6.98229 3.31984 8.37954 3.31984ZM12.3363 6.84162C12.3363 6.6536 12.4892 6.50154 12.6783 6.50154H18.0768C18.2658 6.50154 18.4187 6.6536 18.4187 6.84162C18.4187 7.02964 18.2658 7.1817 18.0768 7.1817H12.6783C12.4897 7.1817 12.3363 7.02964 12.3363 6.84162ZM14.3452 10.5208C14.3452 10.7088 14.1923 10.8609 14.0032 10.8609H6.27927C6.0902 10.8609 5.93728 10.7088 5.93728 10.5208C5.93728 10.3328 6.0902 10.1807 6.27927 10.1807H14.0032C14.1918 10.1807 14.3452 10.3328 14.3452 10.5208ZM11.1091 13.3566C11.1091 13.5446 10.9562 13.6967 10.7671 13.6967H6.27878C6.08971 13.6967 5.93679 13.5446 5.93679 13.3566C5.93679 13.1686 6.08971 13.0165 6.27878 13.0165H10.7671C10.9562 13.0165 11.1091 13.1691 11.1091 13.3566ZM9.81637 16.0544C10.0054 16.0544 10.1584 16.2065 10.1584 16.3945C10.1584 16.5825 10.0054 16.7346 9.81637 16.7346H6.27927C6.0902 16.7346 5.93728 16.5825 5.93728 16.3945C5.93728 16.2065 6.0902 16.0544 6.27927 16.0544H9.81637ZM10.3665 19.8444C10.3665 20.0324 10.2136 20.1845 10.0245 20.1845H6.27927C6.0902 20.1845 5.93728 20.0324 5.93728 19.8444C5.93728 19.6564 6.0902 19.5043 6.27927 19.5043H10.0245C10.2131 19.5043 10.3665 19.6564 10.3665 19.8444ZM7.36776 5.17328C7.36776 4.73798 7.64769 4.36777 8.03756 4.22785V4.17976C8.03756 3.99174 8.19047 3.83968 8.37954 3.83968C8.56861 3.83968 8.72153 3.99174 8.72153 4.17976V4.22737C8.94724 4.3085 9.14168 4.46883 9.26284 4.68405C9.35518 4.84777 9.29606 5.05522 9.13142 5.14704C8.96629 5.23887 8.75817 5.18008 8.66583 5.01636C8.60721 4.91239 8.49728 4.84777 8.37905 4.84777C8.19829 4.84777 8.05124 4.99401 8.05124 5.17377C8.05124 5.35352 8.19829 5.49976 8.37905 5.49976C8.93698 5.49976 9.39084 5.95109 9.39084 6.50591C9.39084 6.94122 9.1109 7.3119 8.72104 7.45134V7.49943C8.72104 7.68745 8.56812 7.83951 8.37905 7.83951C8.18998 7.83951 8.03707 7.68745 8.03707 7.49943V7.45182C7.81087 7.37069 7.61692 7.21036 7.49576 6.99514C7.40342 6.83142 7.46253 6.62397 7.62718 6.53215C7.79182 6.44032 8.00043 6.49911 8.09276 6.66283C8.15139 6.7668 8.26131 6.83142 8.37905 6.83142C8.55982 6.83142 8.70687 6.68518 8.70687 6.50543C8.70687 6.32567 8.55982 6.17943 8.37905 6.17943C7.82162 6.17943 7.36776 5.7281 7.36776 5.17328Z" stroke="#00C796" stroke-width="0.2" mask="url(#path-1-outside-1_3938_60152)"/>
</svg>
