<svg width="24" height="19" viewBox="0 0 24 19" fill="none" xmlns="http://www.w3.org/2000/svg">
<path d="M16.8 16.4667V19H0V16.4667C0 16.4667 0 11.4 8.4 11.4C16.8 11.4 16.8 16.4667 16.8 16.4667ZM12.6 4.43338C12.6 3.55656 12.3537 2.69942 11.8922 1.97037C11.4307 1.24131 10.7747 0.67308 10.0073 0.337533C9.23982 0.0019857 8.39534 -0.0858088 7.58062 0.0852518C6.7659 0.256312 6.01753 0.678545 5.43015 1.29856C4.84277 1.91857 4.44276 2.70851 4.2807 3.56849C4.11864 4.42847 4.20182 5.31986 4.51971 6.12994C4.83759 6.94002 5.37592 7.63241 6.06661 8.11955C6.75729 8.60669 7.56932 8.8667 8.4 8.8667C9.51391 8.8667 10.5822 8.39962 11.3698 7.56821C12.1575 6.7368 12.6 5.60917 12.6 4.43338ZM16.728 11.4C17.4657 12.0026 18.0693 12.7686 18.4964 13.6439C18.9235 14.5193 19.1637 15.4828 19.2 16.4667V19H24V16.4667C24 16.4667 24 11.8687 16.728 11.4ZM15.6 6.65998e-05C14.774 -0.00478816 13.9662 0.255876 13.284 0.747397C14.0129 1.82246 14.4049 3.11135 14.4049 4.43338C14.4049 5.75542 14.0129 7.04431 13.284 8.11937C13.9662 8.61089 14.774 8.87156 15.6 8.8667C16.7139 8.8667 17.7822 8.39962 18.5699 7.56821C19.3575 6.7368 19.8 5.60917 19.8 4.43338C19.8 3.2576 19.3575 2.12996 18.5699 1.29856C17.7822 0.467147 16.7139 6.65998e-05 15.6 6.65998e-05Z" fill="#00C795"/>
</svg>
