<svg width="18" height="25" viewBox="0 0 18 25" fill="none" xmlns="http://www.w3.org/2000/svg">
<path d="M14.5714 5.19922H18V8.62779H14.5714V5.19922ZM14.5714 10.3421H18V13.7706H14.5714V10.3421ZM9.42859 5.19922H12.8572V8.62779H9.42859V5.19922ZM9.42859 10.3421H12.8572V13.7706H9.42859V10.3421Z" fill="#00C796"/>
<path d="M7.28571 21.4855C7.99579 21.4855 8.57143 20.9099 8.57143 20.1998C8.57143 19.4897 7.99579 18.9141 7.28571 18.9141C6.57563 18.9141 6 19.4897 6 20.1998C6 20.9099 6.57563 21.4855 7.28571 21.4855Z" fill="#00C796"/>
<path d="M12.8571 24.9141H1.71429C1.25977 24.9136 0.823997 24.7329 0.502604 24.4115C0.181211 24.0901 0.000453837 23.6543 0 23.1998V2.62835C0.000453837 2.17383 0.181211 1.73806 0.502604 1.41667C0.823997 1.09527 1.25977 0.914516 1.71429 0.914062H12.8571V2.62835H1.71429V23.1998H12.8571V16.3426H14.5714V23.1998C14.571 23.6543 14.3902 24.0901 14.0688 24.4115C13.7474 24.7329 13.3117 24.9136 12.8571 24.9141Z" fill="#00C796"/>
</svg>
