<svg width="24" height="26" viewBox="0 0 24 26" fill="none" xmlns="http://www.w3.org/2000/svg">
<mask id="path-1-outside-1_3938_60183" maskUnits="userSpaceOnUse" x="0" y="0" width="24" height="26" fill="black">
<rect fill="white" width="24" height="26"/>
<path d="M22.7143 18.9034H22.5654C22.4941 18.6882 22.407 18.4784 22.3046 18.2753L22.4109 18.1686C22.5589 18.0205 22.6405 17.8235 22.6405 17.6133C22.6405 17.4035 22.5588 17.2065 22.4111 17.0588L21.984 16.6316V12.1353C21.984 11.5851 21.5357 11.1375 20.9848 11.1375H20.2232L20.82 4.48219C20.8349 4.31411 20.8574 4.06029 20.6127 3.80631L19.1869 2.32751C19.0414 2.17395 18.9435 2.1404 18.7415 2.12277L18.1852 2.07285C18.1849 2.07281 18.1846 2.07258 18.1842 2.07258C18.1839 2.07254 18.1836 2.07273 18.1833 2.07269L6.28919 1.00516C5.99332 0.97645 5.70249 1.06838 5.4727 1.26033C5.24274 1.45228 5.10158 1.72179 5.07541 2.01865L4.27853 10.8921H1.93689C1.93515 10.8921 1.9334 10.8921 1.93165 10.8921C1.66409 10.8921 1.42365 10.9848 1.25402 11.1535C1.09328 11.3136 1.00834 11.5257 1.00834 11.7673L1 22.0895C1 22.8716 1.38101 23.7964 3.14309 23.8528C3.18796 23.8704 3.23605 23.8818 3.28712 23.8818H14.2906L14.9394 24.5306C15.2347 24.8261 15.7529 24.8257 16.0487 24.5306L16.1547 24.4243C16.357 24.5263 16.5667 24.6136 16.7827 24.6849V24.8354C16.7827 25.2678 17.1352 25.6199 17.5686 25.6199H18.8647C19.2975 25.6199 19.6494 25.2678 19.6494 24.8354V24.6849C19.8658 24.6136 20.0758 24.5267 20.2774 24.4247L20.3846 24.5322C20.6921 24.8362 21.1895 24.8358 21.4939 24.5306L22.4108 23.6139C22.5588 23.4658 22.6404 23.2688 22.6404 23.0589C22.6404 22.8491 22.5587 22.6522 22.4118 22.5052L22.3046 22.3974C22.4069 22.1938 22.4942 21.984 22.5653 21.7688H22.7142C23.1476 21.7688 23.5003 21.4167 23.5003 20.9843V19.688C23.5003 19.2556 23.1477 18.9034 22.7143 18.9034ZM21.1897 12.1353V15.9568C20.9166 15.8654 20.6026 15.925 20.3831 16.1417L20.2775 16.2476C20.0758 16.1456 19.8658 16.0587 19.6495 15.9873V15.8373C19.6495 15.4045 19.2976 15.0524 18.8648 15.0524H17.5686C17.1353 15.0524 16.7828 15.4045 16.7828 15.8373V15.9873C16.5668 16.0587 16.357 16.1459 16.1548 16.248L16.0487 16.1417C15.7429 15.8365 15.2456 15.8361 14.9394 16.1417L14.0223 17.0588C13.7164 17.3648 13.7164 17.8623 14.0223 18.1682L14.1284 18.2745C14.0264 18.4769 13.9394 18.6871 13.868 18.9035H13.7177C13.2852 18.9035 12.9333 19.2556 12.9333 19.688V20.9843C12.9333 21.4167 13.2852 21.7688 13.7177 21.7688H13.868C13.9394 21.9852 14.0264 22.1954 14.1286 22.3978L14.0223 22.5045C13.8622 22.6646 13.7881 22.8773 13.7958 23.0877H3.68425V14.7961C3.68425 14.7674 3.70847 14.7429 3.73718 14.7429H12.3686C12.5121 14.7429 12.6445 14.6654 12.7149 14.5405L13.957 12.3294L14.0297 12.1944C14.0772 12.1042 14.1569 11.9532 14.2112 11.9317H20.9848C21.0959 11.9317 21.1897 12.025 21.1897 12.1353ZM20.0341 4.35115C20.0333 4.36958 20.0308 4.38935 20.0289 4.41163L20.0283 4.41838L18.3843 4.26971L18.5083 2.89928L18.6465 2.9117L20.0341 4.35115ZM5.86649 2.08902C5.87403 2.00352 5.91497 1.92577 5.98165 1.8699C6.04836 1.81427 6.1327 1.78711 6.21744 1.79604L17.7172 2.82828L17.5884 4.25323C17.5709 4.45003 17.6316 4.64218 17.7592 4.79399C17.8864 4.9456 18.0648 5.03848 18.2604 5.05595L19.9573 5.2095L19.4257 11.1375H14.2112C13.6892 11.1375 13.4713 11.5505 13.3272 11.8239L12.1361 13.9488H4.8015L5.86649 2.08902ZM1.79422 22.0895L1.80256 11.7673C1.80256 11.7528 1.80411 11.7266 1.81439 11.7163C1.82563 11.7049 1.86482 11.6925 1.93519 11.6863H4.20725L4.00406 13.9488H3.73718C3.27008 13.9488 2.89007 14.3288 2.89007 14.7961V23.0425C1.79783 22.9298 1.79422 22.3731 1.79422 22.0895ZM22.2683 20.9746C22.0871 20.9746 21.9288 21.0972 21.8838 21.2728C21.7945 21.6199 21.656 21.9538 21.472 22.2656C21.3801 22.4211 21.4051 22.6192 21.5325 22.7472L21.8495 23.052L20.945 23.9691L20.6288 23.6527C20.5002 23.5243 20.3009 23.4991 20.1446 23.5922C19.8387 23.7745 19.505 23.9129 19.1533 24.0033C18.9778 24.0487 18.8552 24.2069 18.8552 24.388L18.8648 24.8257L17.5769 24.8354V24.3878C17.5769 24.2067 17.4544 24.0485 17.2791 24.0035C16.9286 23.9128 16.5947 23.7744 16.287 23.5917C16.224 23.5545 16.154 23.5363 16.0846 23.5363C15.9818 23.5363 15.8802 23.5762 15.8036 23.6526L15.501 23.9691L14.757 23.2352C14.7404 23.2151 14.7226 23.1978 14.7024 23.1813L14.5847 23.0652L14.9011 22.7472C15.0289 22.6189 15.0535 22.4199 14.9608 22.2644C14.7782 21.9573 14.6399 21.6238 14.55 21.2728C14.5048 21.0976 14.3466 20.9746 14.1653 20.9746L13.7275 20.9843L13.7178 19.6977H14.1653C14.3466 19.6977 14.5048 19.5751 14.55 19.3995C14.64 19.0489 14.7784 18.715 14.9612 18.4063C15.0537 18.2504 15.0287 18.0515 14.9004 17.9232L14.5839 17.6203L15.4873 16.7032L15.8037 17.0196C15.9319 17.1476 16.131 17.1732 16.2871 17.0805C16.5948 16.8978 16.9286 16.7594 17.2792 16.6687C17.4545 16.6237 17.577 16.4655 17.577 16.2844L17.5687 15.8466L18.8553 15.8373V16.2844C18.8553 16.4655 18.9779 16.6237 19.1533 16.6691C19.505 16.7594 19.8388 16.8979 20.1447 17.0802C20.301 17.1733 20.5003 17.1476 20.6288 17.0197L20.9325 16.7033L21.2959 17.0617C21.3044 17.071 21.313 17.0793 21.3223 17.0877L21.849 17.6072L21.5327 17.9248C21.4052 18.0531 21.3801 18.2513 21.4721 18.4068C21.6559 18.7182 21.7943 19.0525 21.8839 19.3995C21.9291 19.5752 22.0873 19.6977 22.2684 19.6977L22.7062 19.6881L22.7143 20.9747L22.2683 20.9746Z"/>
</mask>
<path d="M22.7143 18.9034H22.5654C22.4941 18.6882 22.407 18.4784 22.3046 18.2753L22.4109 18.1686C22.5589 18.0205 22.6405 17.8235 22.6405 17.6133C22.6405 17.4035 22.5588 17.2065 22.4111 17.0588L21.984 16.6316V12.1353C21.984 11.5851 21.5357 11.1375 20.9848 11.1375H20.2232L20.82 4.48219C20.8349 4.31411 20.8574 4.06029 20.6127 3.80631L19.1869 2.32751C19.0414 2.17395 18.9435 2.1404 18.7415 2.12277L18.1852 2.07285C18.1849 2.07281 18.1846 2.07258 18.1842 2.07258C18.1839 2.07254 18.1836 2.07273 18.1833 2.07269L6.28919 1.00516C5.99332 0.97645 5.70249 1.06838 5.4727 1.26033C5.24274 1.45228 5.10158 1.72179 5.07541 2.01865L4.27853 10.8921H1.93689C1.93515 10.8921 1.9334 10.8921 1.93165 10.8921C1.66409 10.8921 1.42365 10.9848 1.25402 11.1535C1.09328 11.3136 1.00834 11.5257 1.00834 11.7673L1 22.0895C1 22.8716 1.38101 23.7964 3.14309 23.8528C3.18796 23.8704 3.23605 23.8818 3.28712 23.8818H14.2906L14.9394 24.5306C15.2347 24.8261 15.7529 24.8257 16.0487 24.5306L16.1547 24.4243C16.357 24.5263 16.5667 24.6136 16.7827 24.6849V24.8354C16.7827 25.2678 17.1352 25.6199 17.5686 25.6199H18.8647C19.2975 25.6199 19.6494 25.2678 19.6494 24.8354V24.6849C19.8658 24.6136 20.0758 24.5267 20.2774 24.4247L20.3846 24.5322C20.6921 24.8362 21.1895 24.8358 21.4939 24.5306L22.4108 23.6139C22.5588 23.4658 22.6404 23.2688 22.6404 23.0589C22.6404 22.8491 22.5587 22.6522 22.4118 22.5052L22.3046 22.3974C22.4069 22.1938 22.4942 21.984 22.5653 21.7688H22.7142C23.1476 21.7688 23.5003 21.4167 23.5003 20.9843V19.688C23.5003 19.2556 23.1477 18.9034 22.7143 18.9034ZM21.1897 12.1353V15.9568C20.9166 15.8654 20.6026 15.925 20.3831 16.1417L20.2775 16.2476C20.0758 16.1456 19.8658 16.0587 19.6495 15.9873V15.8373C19.6495 15.4045 19.2976 15.0524 18.8648 15.0524H17.5686C17.1353 15.0524 16.7828 15.4045 16.7828 15.8373V15.9873C16.5668 16.0587 16.357 16.1459 16.1548 16.248L16.0487 16.1417C15.7429 15.8365 15.2456 15.8361 14.9394 16.1417L14.0223 17.0588C13.7164 17.3648 13.7164 17.8623 14.0223 18.1682L14.1284 18.2745C14.0264 18.4769 13.9394 18.6871 13.868 18.9035H13.7177C13.2852 18.9035 12.9333 19.2556 12.9333 19.688V20.9843C12.9333 21.4167 13.2852 21.7688 13.7177 21.7688H13.868C13.9394 21.9852 14.0264 22.1954 14.1286 22.3978L14.0223 22.5045C13.8622 22.6646 13.7881 22.8773 13.7958 23.0877H3.68425V14.7961C3.68425 14.7674 3.70847 14.7429 3.73718 14.7429H12.3686C12.5121 14.7429 12.6445 14.6654 12.7149 14.5405L13.957 12.3294L14.0297 12.1944C14.0772 12.1042 14.1569 11.9532 14.2112 11.9317H20.9848C21.0959 11.9317 21.1897 12.025 21.1897 12.1353ZM20.0341 4.35115C20.0333 4.36958 20.0308 4.38935 20.0289 4.41163L20.0283 4.41838L18.3843 4.26971L18.5083 2.89928L18.6465 2.9117L20.0341 4.35115ZM5.86649 2.08902C5.87403 2.00352 5.91497 1.92577 5.98165 1.8699C6.04836 1.81427 6.1327 1.78711 6.21744 1.79604L17.7172 2.82828L17.5884 4.25323C17.5709 4.45003 17.6316 4.64218 17.7592 4.79399C17.8864 4.9456 18.0648 5.03848 18.2604 5.05595L19.9573 5.2095L19.4257 11.1375H14.2112C13.6892 11.1375 13.4713 11.5505 13.3272 11.8239L12.1361 13.9488H4.8015L5.86649 2.08902ZM1.79422 22.0895L1.80256 11.7673C1.80256 11.7528 1.80411 11.7266 1.81439 11.7163C1.82563 11.7049 1.86482 11.6925 1.93519 11.6863H4.20725L4.00406 13.9488H3.73718C3.27008 13.9488 2.89007 14.3288 2.89007 14.7961V23.0425C1.79783 22.9298 1.79422 22.3731 1.79422 22.0895ZM22.2683 20.9746C22.0871 20.9746 21.9288 21.0972 21.8838 21.2728C21.7945 21.6199 21.656 21.9538 21.472 22.2656C21.3801 22.4211 21.4051 22.6192 21.5325 22.7472L21.8495 23.052L20.945 23.9691L20.6288 23.6527C20.5002 23.5243 20.3009 23.4991 20.1446 23.5922C19.8387 23.7745 19.505 23.9129 19.1533 24.0033C18.9778 24.0487 18.8552 24.2069 18.8552 24.388L18.8648 24.8257L17.5769 24.8354V24.3878C17.5769 24.2067 17.4544 24.0485 17.2791 24.0035C16.9286 23.9128 16.5947 23.7744 16.287 23.5917C16.224 23.5545 16.154 23.5363 16.0846 23.5363C15.9818 23.5363 15.8802 23.5762 15.8036 23.6526L15.501 23.9691L14.757 23.2352C14.7404 23.2151 14.7226 23.1978 14.7024 23.1813L14.5847 23.0652L14.9011 22.7472C15.0289 22.6189 15.0535 22.4199 14.9608 22.2644C14.7782 21.9573 14.6399 21.6238 14.55 21.2728C14.5048 21.0976 14.3466 20.9746 14.1653 20.9746L13.7275 20.9843L13.7178 19.6977H14.1653C14.3466 19.6977 14.5048 19.5751 14.55 19.3995C14.64 19.0489 14.7784 18.715 14.9612 18.4063C15.0537 18.2504 15.0287 18.0515 14.9004 17.9232L14.5839 17.6203L15.4873 16.7032L15.8037 17.0196C15.9319 17.1476 16.131 17.1732 16.2871 17.0805C16.5948 16.8978 16.9286 16.7594 17.2792 16.6687C17.4545 16.6237 17.577 16.4655 17.577 16.2844L17.5687 15.8466L18.8553 15.8373V16.2844C18.8553 16.4655 18.9779 16.6237 19.1533 16.6691C19.505 16.7594 19.8388 16.8979 20.1447 17.0802C20.301 17.1733 20.5003 17.1476 20.6288 17.0197L20.9325 16.7033L21.2959 17.0617C21.3044 17.071 21.313 17.0793 21.3223 17.0877L21.849 17.6072L21.5327 17.9248C21.4052 18.0531 21.3801 18.2513 21.4721 18.4068C21.6559 18.7182 21.7943 19.0525 21.8839 19.3995C21.9291 19.5752 22.0873 19.6977 22.2684 19.6977L22.7062 19.6881L22.7143 20.9747L22.2683 20.9746Z" fill="#00C795"/>
<path d="M22.7143 18.9034H22.5654C22.4941 18.6882 22.407 18.4784 22.3046 18.2753L22.4109 18.1686C22.5589 18.0205 22.6405 17.8235 22.6405 17.6133C22.6405 17.4035 22.5588 17.2065 22.4111 17.0588L21.984 16.6316V12.1353C21.984 11.5851 21.5357 11.1375 20.9848 11.1375H20.2232L20.82 4.48219C20.8349 4.31411 20.8574 4.06029 20.6127 3.80631L19.1869 2.32751C19.0414 2.17395 18.9435 2.1404 18.7415 2.12277L18.1852 2.07285C18.1849 2.07281 18.1846 2.07258 18.1842 2.07258C18.1839 2.07254 18.1836 2.07273 18.1833 2.07269L6.28919 1.00516C5.99332 0.97645 5.70249 1.06838 5.4727 1.26033C5.24274 1.45228 5.10158 1.72179 5.07541 2.01865L4.27853 10.8921H1.93689C1.93515 10.8921 1.9334 10.8921 1.93165 10.8921C1.66409 10.8921 1.42365 10.9848 1.25402 11.1535C1.09328 11.3136 1.00834 11.5257 1.00834 11.7673L1 22.0895C1 22.8716 1.38101 23.7964 3.14309 23.8528C3.18796 23.8704 3.23605 23.8818 3.28712 23.8818H14.2906L14.9394 24.5306C15.2347 24.8261 15.7529 24.8257 16.0487 24.5306L16.1547 24.4243C16.357 24.5263 16.5667 24.6136 16.7827 24.6849V24.8354C16.7827 25.2678 17.1352 25.6199 17.5686 25.6199H18.8647C19.2975 25.6199 19.6494 25.2678 19.6494 24.8354V24.6849C19.8658 24.6136 20.0758 24.5267 20.2774 24.4247L20.3846 24.5322C20.6921 24.8362 21.1895 24.8358 21.4939 24.5306L22.4108 23.6139C22.5588 23.4658 22.6404 23.2688 22.6404 23.0589C22.6404 22.8491 22.5587 22.6522 22.4118 22.5052L22.3046 22.3974C22.4069 22.1938 22.4942 21.984 22.5653 21.7688H22.7142C23.1476 21.7688 23.5003 21.4167 23.5003 20.9843V19.688C23.5003 19.2556 23.1477 18.9034 22.7143 18.9034ZM21.1897 12.1353V15.9568C20.9166 15.8654 20.6026 15.925 20.3831 16.1417L20.2775 16.2476C20.0758 16.1456 19.8658 16.0587 19.6495 15.9873V15.8373C19.6495 15.4045 19.2976 15.0524 18.8648 15.0524H17.5686C17.1353 15.0524 16.7828 15.4045 16.7828 15.8373V15.9873C16.5668 16.0587 16.357 16.1459 16.1548 16.248L16.0487 16.1417C15.7429 15.8365 15.2456 15.8361 14.9394 16.1417L14.0223 17.0588C13.7164 17.3648 13.7164 17.8623 14.0223 18.1682L14.1284 18.2745C14.0264 18.4769 13.9394 18.6871 13.868 18.9035H13.7177C13.2852 18.9035 12.9333 19.2556 12.9333 19.688V20.9843C12.9333 21.4167 13.2852 21.7688 13.7177 21.7688H13.868C13.9394 21.9852 14.0264 22.1954 14.1286 22.3978L14.0223 22.5045C13.8622 22.6646 13.7881 22.8773 13.7958 23.0877H3.68425V14.7961C3.68425 14.7674 3.70847 14.7429 3.73718 14.7429H12.3686C12.5121 14.7429 12.6445 14.6654 12.7149 14.5405L13.957 12.3294L14.0297 12.1944C14.0772 12.1042 14.1569 11.9532 14.2112 11.9317H20.9848C21.0959 11.9317 21.1897 12.025 21.1897 12.1353ZM20.0341 4.35115C20.0333 4.36958 20.0308 4.38935 20.0289 4.41163L20.0283 4.41838L18.3843 4.26971L18.5083 2.89928L18.6465 2.9117L20.0341 4.35115ZM5.86649 2.08902C5.87403 2.00352 5.91497 1.92577 5.98165 1.8699C6.04836 1.81427 6.1327 1.78711 6.21744 1.79604L17.7172 2.82828L17.5884 4.25323C17.5709 4.45003 17.6316 4.64218 17.7592 4.79399C17.8864 4.9456 18.0648 5.03848 18.2604 5.05595L19.9573 5.2095L19.4257 11.1375H14.2112C13.6892 11.1375 13.4713 11.5505 13.3272 11.8239L12.1361 13.9488H4.8015L5.86649 2.08902ZM1.79422 22.0895L1.80256 11.7673C1.80256 11.7528 1.80411 11.7266 1.81439 11.7163C1.82563 11.7049 1.86482 11.6925 1.93519 11.6863H4.20725L4.00406 13.9488H3.73718C3.27008 13.9488 2.89007 14.3288 2.89007 14.7961V23.0425C1.79783 22.9298 1.79422 22.3731 1.79422 22.0895ZM22.2683 20.9746C22.0871 20.9746 21.9288 21.0972 21.8838 21.2728C21.7945 21.6199 21.656 21.9538 21.472 22.2656C21.3801 22.4211 21.4051 22.6192 21.5325 22.7472L21.8495 23.052L20.945 23.9691L20.6288 23.6527C20.5002 23.5243 20.3009 23.4991 20.1446 23.5922C19.8387 23.7745 19.505 23.9129 19.1533 24.0033C18.9778 24.0487 18.8552 24.2069 18.8552 24.388L18.8648 24.8257L17.5769 24.8354V24.3878C17.5769 24.2067 17.4544 24.0485 17.2791 24.0035C16.9286 23.9128 16.5947 23.7744 16.287 23.5917C16.224 23.5545 16.154 23.5363 16.0846 23.5363C15.9818 23.5363 15.8802 23.5762 15.8036 23.6526L15.501 23.9691L14.757 23.2352C14.7404 23.2151 14.7226 23.1978 14.7024 23.1813L14.5847 23.0652L14.9011 22.7472C15.0289 22.6189 15.0535 22.4199 14.9608 22.2644C14.7782 21.9573 14.6399 21.6238 14.55 21.2728C14.5048 21.0976 14.3466 20.9746 14.1653 20.9746L13.7275 20.9843L13.7178 19.6977H14.1653C14.3466 19.6977 14.5048 19.5751 14.55 19.3995C14.64 19.0489 14.7784 18.715 14.9612 18.4063C15.0537 18.2504 15.0287 18.0515 14.9004 17.9232L14.5839 17.6203L15.4873 16.7032L15.8037 17.0196C15.9319 17.1476 16.131 17.1732 16.2871 17.0805C16.5948 16.8978 16.9286 16.7594 17.2792 16.6687C17.4545 16.6237 17.577 16.4655 17.577 16.2844L17.5687 15.8466L18.8553 15.8373V16.2844C18.8553 16.4655 18.9779 16.6237 19.1533 16.6691C19.505 16.7594 19.8388 16.8979 20.1447 17.0802C20.301 17.1733 20.5003 17.1476 20.6288 17.0197L20.9325 16.7033L21.2959 17.0617C21.3044 17.071 21.313 17.0793 21.3223 17.0877L21.849 17.6072L21.5327 17.9248C21.4052 18.0531 21.3801 18.2513 21.4721 18.4068C21.6559 18.7182 21.7943 19.0525 21.8839 19.3995C21.9291 19.5752 22.0873 19.6977 22.2684 19.6977L22.7062 19.6881L22.7143 20.9747L22.2683 20.9746Z" stroke="#00C796" stroke-width="0.4" mask="url(#path-1-outside-1_3938_60183)"/>
<path d="M18.2167 17.6539C16.7383 17.6539 15.5356 18.8566 15.5356 20.335C15.5356 21.8134 16.7383 23.0161 18.2167 23.0161C19.6951 23.0161 20.8978 21.8134 20.8978 20.335C20.8978 18.8566 19.6951 17.6539 18.2167 17.6539ZM18.2167 22.0219C17.2866 22.0219 16.5298 21.2651 16.5298 20.335C16.5298 19.4049 17.2866 18.6481 18.2167 18.6481C19.1468 18.6481 19.9036 19.4049 19.9036 20.335C19.9036 21.2651 19.1468 22.0219 18.2167 22.0219Z" fill="#00C795" stroke="#00C796" stroke-width="0.2"/>
<path d="M16.6827 7.33963L16.6838 7.33972C16.6977 7.34082 16.7124 7.34158 16.7275 7.34158C16.9823 7.34158 17.199 7.14721 17.2223 6.88898L17.2223 6.88892C17.2468 6.61564 17.0452 6.3739 16.7716 6.34939C16.7716 6.34939 16.7716 6.34938 16.7716 6.34938L8.26132 5.58547L8.26132 5.58546L8.26084 5.58542C7.98738 5.56218 7.74631 5.76253 7.72177 6.03617C7.69727 6.30945 7.8989 6.55119 8.17247 6.57571C8.17248 6.57571 8.17249 6.57571 8.17249 6.57571L16.6827 7.33963Z" fill="#00C795" stroke="#00C796" stroke-width="0.2"/>
<path d="M16.4802 9.60086L16.4812 9.60094C16.4951 9.60204 16.5099 9.6028 16.525 9.6028C16.7797 9.6028 16.9964 9.40844 17.0197 9.1502L17.0197 9.15014C17.0442 8.87664 16.8426 8.63513 16.569 8.61061C16.569 8.61061 16.569 8.61061 16.569 8.61061L8.05758 7.84689L8.05758 7.84688L8.0561 7.84677C7.78291 7.82633 7.54289 8.02327 7.51805 8.29751L7.51804 8.29761C7.49354 8.57106 7.69519 8.81262 7.96874 8.83713C7.96875 8.83713 7.96875 8.83713 7.96876 8.83713L16.4802 9.60086Z" fill="#00C795" stroke="#00C796" stroke-width="0.2"/>
</svg>
