<svg width="39" height="39" viewBox="0 0 39 39" fill="none" xmlns="http://www.w3.org/2000/svg">
<rect x="0.692261" y="0.5" width="38" height="38" rx="10" fill="#135D54"/>
<path d="M15.9463 12.797C15.9534 13.1028 15.8993 13.407 15.7871 13.6916C15.675 13.9762 15.5071 14.2356 15.2933 14.4544C15.0795 14.6732 14.8241 14.8471 14.5422 14.9658C14.2602 15.0845 13.9574 15.1456 13.6515 15.1456C13.3455 15.1456 13.0427 15.0845 12.7608 14.9658C12.4788 14.8471 12.2234 14.6732 12.0096 14.4544C11.7958 14.2356 11.6279 13.9762 11.5158 13.6916C11.4036 13.407 11.3495 13.1028 11.3566 12.797C11.3664 12.1948 11.6126 11.6206 12.0419 11.1982C12.4713 10.7758 13.0495 10.5391 13.6518 10.5391C14.2541 10.5391 14.8322 10.7758 15.2616 11.1982C15.6909 11.6206 15.9371 12.1948 15.947 12.797H15.9463Z" fill="white"/>
<path fill-rule="evenodd" clip-rule="evenodd" d="M10.9644 20.3329C10.7916 20.6094 10.516 20.806 10.1982 20.8793C9.88051 20.9526 9.54666 20.8967 9.27014 20.7239C8.99362 20.5511 8.79708 20.2755 8.72375 19.9577C8.65043 19.64 8.70633 19.3061 8.87915 19.0296L8.88161 19.0259L8.88592 19.0192L8.90067 18.9958C8.97865 18.8729 9.05879 18.7514 9.14104 18.6313C9.34043 18.3372 9.54998 18.0501 9.76932 17.7706C10.0146 17.4608 10.3158 17.111 10.6343 16.8269C10.7935 16.6849 10.9853 16.5337 11.2023 16.412C11.4064 16.2976 11.7255 16.1562 12.1158 16.1562H15.1872C15.5775 16.1562 15.8966 16.2976 16.1013 16.412C16.3177 16.5337 16.5101 16.6849 16.6687 16.8269C16.9872 17.111 17.289 17.4608 17.5337 17.7712C17.8433 18.1648 18.1332 18.5735 18.4023 18.9958L18.4177 19.0192L18.422 19.0253L18.4239 19.029C18.5919 19.3053 18.6444 19.6368 18.5698 19.9515C18.4952 20.2662 18.2996 20.5389 18.0254 20.7104C17.7512 20.8819 17.4205 20.9385 17.1048 20.8678C16.7892 20.7971 16.5141 20.605 16.3392 20.3329L16.3374 20.3304L16.3275 20.3151C16.2968 20.2666 16.2657 20.2185 16.2341 20.1706V21.6977L16.6786 26.3667C16.7065 26.685 16.6095 27.0016 16.408 27.2496C16.2065 27.4976 15.9165 27.6574 15.5992 27.6952C15.282 27.733 14.9625 27.6458 14.7084 27.4521C14.4543 27.2584 14.2856 26.9734 14.238 26.6575L13.6103 22.2682L12.9833 26.6575C12.9384 26.9759 12.7706 27.264 12.5158 27.4601C12.2611 27.6562 11.9396 27.7447 11.6204 27.7067C11.3011 27.6687 11.0095 27.5071 10.8079 27.2566C10.6064 27.0062 10.5109 26.6867 10.5421 26.3667L11.0585 20.9507H11.0695V20.17C11.0378 20.2181 11.0065 20.2665 10.9755 20.3151L10.9663 20.3304L10.9644 20.3329Z" fill="white"/>
<path d="M28.2415 12.7952C28.2415 13.4039 27.9997 13.9877 27.5693 14.4181C27.1388 14.8486 26.555 15.0904 25.9463 15.0904C25.3376 15.0904 24.7538 14.8486 24.3234 14.4181C23.8929 13.9877 23.6511 13.4039 23.6511 12.7952C23.6511 12.1865 23.8929 11.6027 24.3234 11.1722C24.7538 10.7418 25.3376 10.5 25.9463 10.5C26.555 10.5 27.1388 10.7418 27.5693 11.1722C27.9997 11.6027 28.2415 12.1865 28.2415 12.7952Z" fill="white"/>
<path fill-rule="evenodd" clip-rule="evenodd" d="M23.2625 20.2024C23.0885 20.4743 22.8146 20.6669 22.4999 20.7386C22.1851 20.8104 21.8548 20.7554 21.5802 20.5857C21.3056 20.4159 21.1088 20.145 21.0323 19.8314C20.9557 19.5178 21.0056 19.1867 21.1711 18.9095L21.1729 18.9058L21.1778 18.8991L21.192 18.8757L21.2442 18.7933C21.4963 18.4009 21.7657 18.0198 22.0514 17.6511C22.2936 17.3413 22.5924 16.9909 22.9071 16.7063C23.0651 16.5642 23.2557 16.4118 23.4715 16.2901C23.6743 16.1745 23.994 16.0312 24.3862 16.0312H27.4244C27.8166 16.0312 28.1362 16.1745 28.3397 16.2894C28.5549 16.4124 28.7455 16.5642 28.9035 16.7063C29.2188 16.9909 29.517 17.3413 29.7592 17.6511C30.0656 18.0448 30.3524 18.4533 30.6186 18.8751L30.6334 18.8991L30.6395 18.9095C30.8111 19.1869 30.8654 19.521 30.7906 19.8384C30.7157 20.1558 30.5179 20.4304 30.2406 20.602C29.9632 20.7735 29.6291 20.8278 29.3117 20.753C28.9943 20.6782 28.7197 20.4803 28.5481 20.203L28.5463 20.1999L28.5371 20.1845C28.4446 20.0389 28.3493 19.895 28.2512 19.753C28.5389 21.1854 29.1057 23.1501 29.402 24.1436C29.4267 24.2242 29.4345 24.3092 29.4247 24.393C29.4149 24.4768 29.3878 24.5576 29.3452 24.6304C29.3025 24.7032 29.2452 24.7664 29.1769 24.8159C29.1086 24.8654 29.0308 24.9003 28.9483 24.9182C26.7739 25.3712 25.2518 25.3596 22.8905 24.9096C22.8058 24.8929 22.7255 24.8585 22.655 24.8087C22.5844 24.7589 22.5252 24.6948 22.4811 24.6205C22.437 24.5463 22.4091 24.4635 22.3991 24.3778C22.3891 24.292 22.3974 24.205 22.4233 24.1227C22.7338 23.1243 23.311 21.1804 23.5846 19.7161C23.4779 19.8702 23.3742 20.0264 23.2735 20.1845L23.2643 20.1999L23.2625 20.2024ZM23.2004 25.9608V26.7895C23.2006 27.0129 23.282 27.2287 23.4293 27.3967C23.5767 27.5647 23.78 27.6734 24.0016 27.7027C24.2231 27.732 24.4477 27.6799 24.6337 27.556C24.8197 27.4321 24.9543 27.2449 25.0127 27.0292L25.2555 26.1292C24.5682 26.1048 23.8825 26.0486 23.2004 25.9608ZM26.6768 26.1268L26.9209 27.0298C26.9792 27.2456 27.1139 27.4328 27.3 27.5567C27.486 27.6806 27.7107 27.7327 27.9323 27.7033C28.1539 27.6739 28.3572 27.565 28.5045 27.3969C28.6518 27.2289 28.7331 27.013 28.7332 26.7895V25.9522C28.0506 26.0407 27.3645 26.0993 26.6768 26.1268Z" fill="white"/>
</svg>
