<svg width="39" height="39" viewBox="0 0 39 39" fill="none" xmlns="http://www.w3.org/2000/svg">
<rect x="0.692261" y="0.5" width="38" height="38" rx="10" fill="#135D54"/>
<path fill-rule="evenodd" clip-rule="evenodd" d="M17.2675 10.5C16.6572 10.5 16.0718 10.7425 15.6402 11.1741C15.2087 11.6056 14.9662 12.191 14.9662 12.8014V14.4452H13.3224C12.6248 14.4452 11.9558 14.7223 11.4626 15.2155C10.9694 15.7088 10.6923 16.3777 10.6923 17.0753V26.2807C10.6923 26.9782 10.9694 27.6472 11.4626 28.1405C11.9558 28.6337 12.6248 28.9108 13.3224 28.9108H26.473C27.1705 28.9108 27.8395 28.6337 28.3327 28.1405C28.826 27.6472 29.1031 26.9782 29.1031 26.2807V17.0753C29.1031 16.3777 28.826 15.7088 28.3327 15.2155C27.8395 14.7223 27.1705 14.4452 26.473 14.4452H24.8291V12.8014C24.8291 12.191 24.5867 11.6056 24.1551 11.1741C23.7235 10.7425 23.1381 10.5 22.5278 10.5H17.2675ZM22.8565 14.4452V12.8014C22.8565 12.7142 22.8219 12.6305 22.7603 12.5689C22.6986 12.5072 22.615 12.4726 22.5278 12.4726H17.2675C17.1804 12.4726 17.0967 12.5072 17.0351 12.5689C16.9734 12.6305 16.9388 12.7142 16.9388 12.8014V14.4452H22.8565ZM13.3224 16.4178H26.473C26.6473 16.4178 26.8146 16.487 26.9379 16.6103C27.0612 16.7337 27.1305 16.9009 27.1305 17.0753V18.3903H12.6648V17.0753C12.6648 16.9009 12.7341 16.7337 12.8574 16.6103C12.9807 16.487 13.148 16.4178 13.3224 16.4178ZM12.6648 20.3629V26.2807C12.6648 26.4551 12.7341 26.6223 12.8574 26.7456C12.9807 26.8689 13.148 26.9382 13.3224 26.9382H26.473C26.6473 26.9382 26.8146 26.8689 26.9379 26.7456C27.0612 26.6223 27.1305 26.4551 27.1305 26.2807V20.3629H21.2127V22.3355H18.5826V20.3629H12.6648Z" fill="white"/>
</svg>
