<svg width="49" height="48" viewBox="0 0 49 48" fill="none" xmlns="http://www.w3.org/2000/svg">
<g filter="url(#filter0_d_3489_75434)">
<path d="M6 24C6 14.0589 14.0589 6 24 6H25.4694C35.4105 6 43.4694 14.0589 43.4694 24C43.4694 33.9411 35.4105 42 25.4694 42H24C14.0589 42 6 33.9411 6 24Z" fill="white" fill-opacity="0.07" shape-rendering="crispEdges"/>
</g>
<path d="M30.0966 17.9688H18.7296C17.5732 17.9688 16.6357 18.9062 16.6357 20.0627V27.84C16.6357 28.9964 17.5732 29.9339 18.7296 29.9339H30.0966C31.253 29.9339 32.1905 28.9964 32.1905 27.84V20.0627C32.1905 18.9062 31.253 17.9688 30.0966 17.9688Z" stroke="#00C795" stroke-width="1.19652" stroke-linecap="round" stroke-linejoin="round"/>
<path d="M16.6357 21.5625H32.1905M19.627 25.6007H21.4218V26.3486H19.627V25.6007Z" stroke="#00C795" stroke-width="2.24347" stroke-linejoin="round"/>
<defs>
<filter id="filter0_d_3489_75434" x="0.682147" y="0.682147" width="48.1049" height="46.6357" filterUnits="userSpaceOnUse" color-interpolation-filters="sRGB">
<feFlood flood-opacity="0" result="BackgroundImageFix"/>
<feColorMatrix in="SourceAlpha" type="matrix" values="0 0 0 0 0 0 0 0 0 0 0 0 0 0 0 0 0 0 127 0" result="hardAlpha"/>
<feOffset/>
<feGaussianBlur stdDeviation="2.65893"/>
<feComposite in2="hardAlpha" operator="out"/>
<feColorMatrix type="matrix" values="0 0 0 0 0 0 0 0 0 0 0 0 0 0 0 0 0 0 0.15 0"/>
<feBlend mode="normal" in2="BackgroundImageFix" result="effect1_dropShadow_3489_75434"/>
<feBlend mode="normal" in="SourceGraphic" in2="effect1_dropShadow_3489_75434" result="shape"/>
</filter>
</defs>
</svg>
