<svg width="39" height="39" viewBox="0 0 39 39" fill="none" xmlns="http://www.w3.org/2000/svg">
<rect x="0.192261" y="0.5" width="38" height="38" rx="10" fill="#135D54"/>
<path d="M23.573 10.5V11.9296H26.1198L23.7074 14.3641C22.8451 13.713 21.7943 13.3603 20.7139 13.3591C19.3772 13.3591 18.1292 13.8881 17.1843 14.8337C16.7172 15.2952 16.3463 15.8448 16.0933 16.4506C15.8402 17.0565 15.7099 17.7065 15.71 18.3631C15.7101 19.0197 15.8405 19.6697 16.0937 20.2755C16.3469 20.8813 16.7178 21.4308 17.185 21.8922C17.8068 22.5141 18.5474 22.9608 19.3736 23.1874C19.4551 23.1252 19.5466 23.0602 19.6195 22.9872C19.9191 22.6825 20.1344 22.3052 20.2442 21.8922C19.4661 21.7961 18.7425 21.442 18.1892 20.8865C17.5145 20.2125 17.1399 19.3176 17.1399 18.3626C17.1399 17.4077 17.5152 16.5142 18.1907 15.8394C18.864 15.1625 19.7589 14.7887 20.7139 14.7887C21.6688 14.7887 22.563 15.164 23.237 15.8394C23.5705 16.1695 23.8352 16.5625 24.0155 16.9956C24.1959 17.4287 24.2885 17.8934 24.2878 18.3626C24.2878 18.9809 24.1126 19.5563 23.8189 20.0824C23.8875 20.4512 23.9304 20.8386 23.9304 21.2217C23.9304 21.5777 23.9004 21.9294 23.841 22.2725C23.984 22.156 24.1112 22.0237 24.2435 21.8922C25.1884 20.9458 25.7173 19.6992 25.7173 18.3626C25.7173 17.269 25.3571 16.2297 24.7123 15.3691L27.1469 12.9574V15.5035H28.5765V10.5H23.573ZM19.1949 16.397C19.1135 16.4591 19.022 16.5242 18.9491 16.5971C18.6403 16.9073 18.4387 17.2833 18.3243 17.6929C19.1035 17.7929 19.8147 18.1332 20.3793 18.6978C21.0548 19.3719 21.4301 20.2668 21.4301 21.221C21.4301 22.1753 21.0548 23.0694 20.3793 23.7442C19.7046 24.4218 18.8097 24.7956 17.8547 24.7956C16.8998 24.7956 16.0056 24.4204 15.3315 23.7449C14.9978 23.4151 14.733 23.0221 14.5526 22.5889C14.3722 22.1557 14.2798 21.691 14.2808 21.2217C14.2808 20.6034 14.4559 20.028 14.7497 19.502C14.6779 19.1264 14.6406 18.745 14.6382 18.3626C14.6382 18.0066 14.6682 17.655 14.7276 17.3119C14.5846 17.4284 14.4581 17.5606 14.3251 17.6929C13.3816 18.6371 12.8513 19.8851 12.8513 21.2217C12.8513 22.3154 13.2115 23.3546 13.8562 24.2152L12.6511 25.4211L11.2215 23.9915L10.1923 24.9965L11.6218 26.4261L10.1923 27.8556L11.2215 28.8849L12.6511 27.4554L14.0807 28.8849L15.0849 27.8556L13.6554 26.4261L14.8619 25.2209C15.7234 25.873 16.7743 26.2257 17.8547 26.2252C19.1914 26.2252 20.4394 25.6963 21.3843 24.7506C22.3293 23.8064 22.8582 22.5584 22.8582 21.2217C22.8582 19.8851 22.3293 18.6385 21.3836 17.6921C20.7617 17.0703 20.0212 16.6235 19.1949 16.397Z" fill="white"/>
</svg>
