<svg width="39" height="39" viewBox="0 0 39 39" fill="none" xmlns="http://www.w3.org/2000/svg">
<rect x="0.192261" y="0.5" width="38" height="38" rx="10" fill="#135D54"/>
<path d="M10.0627 24.4265V14.852H9.19226V13.1112H11.8035V11.3704C11.8035 11.1396 11.8952 10.9182 12.0584 10.7549C12.2217 10.5917 12.4431 10.5 12.6739 10.5H24.8596C25.0905 10.5 25.3119 10.5917 25.4751 10.7549C25.6383 10.9182 25.73 11.1396 25.73 11.3704V13.1112H28.3413V14.852H27.4709V24.4265H28.3413V26.1674H9.19226V24.4265H10.0627ZM19.6372 24.4265V18.3337H17.8964V24.4265H19.6372ZM15.2851 24.4265V18.3337H13.5443V24.4265H15.2851ZM23.9892 24.4265V18.3337H22.2484V24.4265H23.9892ZM13.5443 12.2408V13.1112H23.9892V12.2408H13.5443Z" fill="white"/>
</svg>
