<svg width="39" height="39" viewBox="0 0 39 39" fill="none" xmlns="http://www.w3.org/2000/svg">
<rect x="0.192261" y="0.5" width="38" height="38" rx="10" fill="#135D54"/>
<path d="M8.19226 13.519C8.19226 12.4045 9.09677 11.5 10.2113 11.5H25.5556C26.6701 11.5 27.5746 12.4045 27.5746 13.519V22.4026C27.5746 23.5171 26.6701 24.4216 25.5556 24.4216H10.2113C9.09677 24.4216 8.19226 23.5171 8.19226 22.4026V13.519ZM13.0378 13.9228V13.1152H11.4227V13.9228C11.4227 14.137 11.3376 14.3424 11.1861 14.4939C11.0347 14.6453 10.8292 14.7304 10.6151 14.7304H9.80746V16.3456H10.6151C11.2576 16.3456 11.8739 16.0903 12.3282 15.636C12.7826 15.1816 13.0378 14.5654 13.0378 13.9228ZM21.1138 17.9608C21.1138 17.104 20.7735 16.2824 20.1677 15.6766C19.5618 15.0707 18.7402 14.7304 17.8834 14.7304C17.0267 14.7304 16.205 15.0707 15.5992 15.6766C14.9934 16.2824 14.653 17.104 14.653 17.9608C14.653 18.8175 14.9934 19.6392 15.5992 20.245C16.205 20.8508 17.0267 21.1912 17.8834 21.1912C18.7402 21.1912 19.5618 20.8508 20.1677 20.245C20.7735 19.6392 21.1138 18.8175 21.1138 17.9608ZM24.3442 13.1152H22.729V13.9228C22.729 14.5654 22.9843 15.1816 23.4386 15.636C23.893 16.0903 24.5093 16.3456 25.1518 16.3456H25.9594V14.7304H25.1518C24.9376 14.7304 24.7322 14.6453 24.5808 14.4939C24.4293 14.3424 24.3442 14.137 24.3442 13.9228V13.1152ZM13.0378 21.9988C13.0378 21.3562 12.7826 20.74 12.3282 20.2856C11.8739 19.8312 11.2576 19.576 10.6151 19.576H9.80746V21.1912H10.6151C10.8292 21.1912 11.0347 21.2763 11.1861 21.4277C11.3376 21.5792 11.4227 21.7846 11.4227 21.9988V22.8064H13.0378V21.9988ZM24.3442 22.8064V21.9988C24.3442 21.7846 24.4293 21.5792 24.5808 21.4277C24.7322 21.2763 24.9376 21.1912 25.1518 21.1912H25.9594V19.576H25.1518C24.5093 19.576 23.893 19.8312 23.4386 20.2856C22.9843 20.74 22.729 21.3562 22.729 21.9988V22.8064H24.3442ZM13.8454 27.652C13.3338 27.6522 12.8352 27.4904 12.4211 27.1898C12.0071 26.8892 11.6988 26.4652 11.5406 25.9786C11.7651 26.0174 11.9944 26.0368 12.2302 26.0368H25.5556C26.5195 26.0368 27.4438 25.6539 28.1254 24.9723C28.8069 24.2908 29.1898 23.3664 29.1898 22.4026V14.8677C29.6624 15.0348 30.0715 15.3443 30.3608 15.7536C30.6501 16.163 30.8053 16.6519 30.805 17.1532V22.4026C30.805 23.0919 30.6692 23.7745 30.4054 24.4114C30.1416 25.0483 29.7549 25.627 29.2675 26.1144C28.78 26.6019 28.2014 26.9886 27.5645 27.2524C26.9276 27.5162 26.245 27.652 25.5556 27.652H13.8454Z" fill="white"/>
</svg>
