<svg width="21" height="27" viewBox="0 0 21 27" fill="none" xmlns="http://www.w3.org/2000/svg">
<path d="M4.64288 15.3968H12.0715V17.2539H4.64288V15.3968ZM4.64288 10.7539H15.7857V12.611H4.64288V10.7539ZM4.64288 20.0396H9.28574V21.8968H4.64288V20.0396Z" fill="#00C796"/>
<path d="M18.5714 3.32478H15.7857V2.39621C15.7857 1.90366 15.5901 1.43129 15.2418 1.08301C14.8935 0.734725 14.4211 0.539063 13.9286 0.539062H6.5C6.00746 0.539063 5.53508 0.734725 5.1868 1.08301C4.83852 1.43129 4.64286 1.90366 4.64286 2.39621V3.32478H1.85714C1.3646 3.32478 0.892226 3.52044 0.543944 3.86872C0.195663 4.217 0 4.68937 0 5.18192V24.6819C0 25.1745 0.195663 25.6468 0.543944 25.9951C0.892226 26.3434 1.3646 26.5391 1.85714 26.5391H18.5714C19.064 26.5391 19.5363 26.3434 19.8846 25.9951C20.2329 25.6468 20.4286 25.1745 20.4286 24.6819V5.18192C20.4286 4.68937 20.2329 4.217 19.8846 3.86872C19.5363 3.52044 19.064 3.32478 18.5714 3.32478ZM6.5 2.39621H13.9286V6.11049H6.5V2.39621ZM18.5714 24.6819H1.85714V5.18192H4.64286V7.96763H15.7857V5.18192H18.5714V24.6819Z" fill="#00C796"/>
</svg>
