<svg width="39" height="39" viewBox="0 0 39 39" fill="none" xmlns="http://www.w3.org/2000/svg">
<rect x="0.192261" y="0.5" width="38" height="38" rx="10" fill="#135D54"/>
<path d="M29.718 18.6079C29.718 19.2496 29.1833 19.7522 28.5773 19.7522H27.4366L27.4616 25.4629C27.4687 26.7284 26.4456 27.755 25.1801 27.755H13.7587C12.5003 27.755 11.4773 26.732 11.4773 25.4736V19.7522H10.333C9.69132 19.7522 9.19226 19.2531 9.19226 18.6079C9.19226 18.2871 9.2992 18.0019 9.54873 17.7524L18.6887 9.78518C18.9383 9.53565 19.2234 9.5 19.473 9.5C19.7225 9.5 20.0077 9.57129 20.2216 9.74953L29.3259 17.7524C29.6111 18.0019 29.7537 18.2871 29.718 18.6079ZM21.7401 17.485C21.7401 16.8799 21.4998 16.2997 21.0719 15.8718C20.6441 15.4439 20.0638 15.2036 19.4587 15.2036C18.8536 15.2036 18.2733 15.4439 17.8455 15.8718C17.4176 16.2997 17.1773 16.8799 17.1773 17.485C17.1773 18.0901 17.4176 18.6704 17.8455 19.0982C18.2733 19.5261 18.8536 19.7665 19.4587 19.7665C20.0638 19.7665 20.6441 19.5261 21.0719 19.0982C21.4998 18.6704 21.7401 18.0901 21.7401 17.485ZM18.318 20.9072C16.7424 20.9072 15.4662 22.1833 15.4662 23.759C15.4662 24.0727 15.7229 24.3293 16.0366 24.3293H22.8809C23.1946 24.3293 23.4512 24.0727 23.4512 23.759C23.4512 22.1833 22.175 20.9072 20.5994 20.9072H18.318Z" fill="white"/>
</svg>
