<svg width="39" height="39" viewBox="0 0 39 39" fill="none" xmlns="http://www.w3.org/2000/svg">
<rect x="0.192261" y="0.5" width="38" height="38" rx="10" fill="#135D54"/>
<path d="M24.996 27.2632V23.8364C25.9555 23.6994 26.6408 22.8769 26.6408 21.7804C26.6408 20.6838 25.6813 19.7243 24.5848 19.7243C23.4882 19.7243 22.5287 20.6838 22.5287 21.7804C22.5287 22.7399 23.2141 23.6994 24.1736 23.8364V27.2632H18.4165V11.5H11.563V27.2632H10.1923V27.9486H28.0116V27.2632H24.996ZM17.0458 23.8364H12.9337V22.4657H17.0458V23.8364ZM17.0458 21.095H12.9337V19.7243H17.0458V21.095ZM17.0458 18.3536H12.9337V16.9829H17.0458V18.3536ZM17.0458 15.6121H12.9337V14.2414H17.0458V15.6121Z" fill="white"/>
</svg>
