<svg width="39" height="39" viewBox="0 0 39 39" fill="none" xmlns="http://www.w3.org/2000/svg">
<rect x="0.692261" y="0.5" width="38" height="38" rx="10" fill="#135D54"/>
<path d="M25.2731 11.5H13.8366C13.2679 11.5 12.7225 11.7259 12.3203 12.1281C11.9182 12.5302 11.6923 13.0756 11.6923 13.6443V25.0809C11.6923 25.6496 11.9182 26.195 12.3203 26.5971C12.7225 26.9993 13.2679 27.2252 13.8366 27.2252H25.2731C25.8418 27.2252 26.3873 26.9993 26.7894 26.5971C27.1916 26.195 27.4175 25.6496 27.4175 25.0809V13.6443C27.4175 13.0756 27.1916 12.5302 26.7894 12.1281C26.3873 11.7259 25.8418 11.5 25.2731 11.5ZM16.6957 25.7956H13.8366C13.647 25.7956 13.4652 25.7203 13.3312 25.5863C13.1971 25.4522 13.1218 25.2704 13.1218 25.0809V24.2374C13.351 24.3206 13.5928 24.3641 13.8366 24.3661H16.6957V25.7956ZM16.6957 22.9365H13.8366C13.647 22.9365 13.4652 22.8612 13.3312 22.7272C13.1971 22.5931 13.1218 22.4113 13.1218 22.2217V21.3783C13.351 21.4615 13.5928 21.505 13.8366 21.507H16.6957V22.9365ZM16.6957 20.0774H13.8366C13.647 20.0774 13.4652 20.0021 13.3312 19.868C13.1971 19.734 13.1218 19.5522 13.1218 19.3626V13.6443C13.1218 13.4548 13.1971 13.273 13.3312 13.1389C13.4652 13.0049 13.647 12.9296 13.8366 12.9296H16.6957V20.0774ZM20.9844 25.7956H18.1253V21.507H20.9844V25.7956ZM20.9844 20.0774H18.1253V12.9296H20.9844V20.0774ZM25.9879 25.0809C25.9879 25.2704 25.9126 25.4522 25.7786 25.5863C25.6445 25.7203 25.4627 25.7956 25.2731 25.7956H22.414V24.3661H25.2731C25.517 24.3641 25.7587 24.3206 25.9879 24.2374V25.0809ZM25.9879 22.2217C25.9879 22.4113 25.9126 22.5931 25.7786 22.7272C25.6445 22.8612 25.4627 22.9365 25.2731 22.9365H22.414V21.507H25.2731C25.517 21.505 25.7587 21.4615 25.9879 21.3783V22.2217ZM25.9879 19.3626C25.9879 19.5522 25.9126 19.734 25.7786 19.868C25.6445 20.0021 25.4627 20.0774 25.2731 20.0774H22.414V12.9296H25.2731C25.4627 12.9296 25.6445 13.0049 25.7786 13.1389C25.9126 13.273 25.9879 13.4548 25.9879 13.6443V19.3626ZM23.8436 15.7887C23.7022 15.7887 23.564 15.8306 23.4464 15.9092C23.3289 15.9877 23.2373 16.0993 23.1832 16.2299C23.1291 16.3606 23.1149 16.5043 23.1425 16.6429C23.1701 16.7816 23.2382 16.9089 23.3381 17.0089C23.4381 17.1089 23.5655 17.1769 23.7041 17.2045C23.8428 17.2321 23.9865 17.2179 24.1171 17.1638C24.2477 17.1097 24.3593 17.0181 24.4379 16.9006C24.5164 16.783 24.5583 16.6448 24.5583 16.5035C24.5583 16.3139 24.483 16.1321 24.349 15.998C24.2149 15.864 24.0331 15.7887 23.8436 15.7887ZM15.2662 17.2183C15.4075 17.2183 15.5457 17.1763 15.6633 17.0978C15.7808 17.0193 15.8724 16.9076 15.9265 16.777C15.9806 16.6464 15.9948 16.5027 15.9672 16.364C15.9396 16.2254 15.8716 16.098 15.7716 15.998C15.6716 15.8981 15.5443 15.83 15.4056 15.8024C15.267 15.7748 15.1232 15.789 14.9926 15.8431C14.862 15.8972 14.7504 15.9888 14.6719 16.1064C14.5933 16.2239 14.5514 16.3621 14.5514 16.5035C14.5514 16.693 14.6267 16.8749 14.7607 17.0089C14.8948 17.143 15.0766 17.2183 15.2662 17.2183Z" fill="white"/>
</svg>
