<svg width="39" height="39" viewBox="0 0 39 39" fill="none" xmlns="http://www.w3.org/2000/svg">
<rect x="0.192261" y="0.5" width="38" height="38" rx="10" fill="#135D54"/>
<path d="M23.1923 12.5V9.5H14.1923V23.5H12.1923V24.5H19.1923V19.5H21.1923V17.5H26.1923V12.5H23.1923ZM18.1923 19.5H16.1923V17.5H18.1923V19.5ZM18.1923 16.5H16.1923V14.5H18.1923V16.5ZM18.1923 13.5H16.1923V11.5H18.1923V13.5ZM21.1923 16.5H19.1923V14.5H21.1923V16.5ZM21.1923 13.5H19.1923V11.5H21.1923V13.5ZM25.1923 16.5H23.1923V14.5H25.1923V16.5ZM26.1923 20.5H28.1923V25.5H20.1923V20.5H22.1923V18.5H26.1923V20.5Z" fill="white"/>
</svg>
