<svg width="27" height="24" viewBox="0 0 27 24" fill="none" xmlns="http://www.w3.org/2000/svg">
<path d="M13.5 21.9141H2.875C2.37772 21.9141 1.90081 21.7165 1.54917 21.3649C1.19754 21.0133 1 20.5363 1 20.0391V3.78906C1 3.29178 1.19754 2.81487 1.54917 2.46324C1.90081 2.11161 2.37772 1.91406 2.875 1.91406H24.125C24.6223 1.91406 25.0992 2.11161 25.4508 2.46324C25.8025 2.81487 26 3.29178 26 3.78906V11.3259" stroke="#00C796" stroke-width="1.875" stroke-linecap="round" stroke-linejoin="round"/>
<path d="M1 3.78906C1 3.29178 1.19754 2.81487 1.54917 2.46324C1.90081 2.11161 2.37772 1.91406 2.875 1.91406H24.125C24.6223 1.91406 25.0992 2.11161 25.4508 2.46324C25.8025 2.81487 26 3.29178 26 3.78906V9.41406H1V3.78906Z" stroke="#00C796" stroke-width="1.875"/>
<path d="M3.49982 5.66406C3.49982 4.97371 4.05946 4.41406 4.74982 4.41406C5.44017 4.41406 5.99982 4.97371 5.99982 5.66406C5.99982 6.35442 5.44017 6.91406 4.74982 6.91406C4.05946 6.91406 3.49982 6.35442 3.49982 5.66406Z" fill="#00C796"/>
<path d="M7.24976 5.66406C7.24976 4.97371 7.8094 4.41406 8.49976 4.41406C9.19011 4.41406 9.74976 4.97371 9.74976 5.66406C9.74976 6.35442 9.19011 6.91406 8.49976 6.91406C7.8094 6.91406 7.24976 6.35442 7.24976 5.66406Z" fill="#00C796"/>
<path d="M21.6248 20.0391C22.6604 20.0391 23.4998 19.1996 23.4998 18.1641C23.4998 17.1285 22.6604 16.2891 21.6248 16.2891C20.5893 16.2891 19.7498 17.1285 19.7498 18.1641C19.7498 19.1996 20.5893 20.0391 21.6248 20.0391Z" stroke="#00C796" stroke-width="1.875"/>
<path d="M21.625 22.5391V20.0391M21.625 16.2891V13.7891M17.8362 20.3516L20.0012 19.1016M23.2487 17.2266L25.4137 15.9766M17.8362 15.9766L20.0012 17.2266M23.2487 19.1016L25.4137 20.3516" stroke="#00C796" stroke-width="1.875" stroke-linecap="round" stroke-linejoin="round"/>
</svg>
