<svg width="39" height="39" viewBox="0 0 39 39" fill="none" xmlns="http://www.w3.org/2000/svg">
<rect x="0.692261" y="0.5" width="38" height="38" rx="10" fill="#135D54"/>
<path d="M19.2598 18.0676L15.476 12.7703L16.9896 10.5H21.5301L23.0436 12.7703L19.2598 18.0676ZM22.5706 15.0405L21.4355 16.6486C23.5166 17.5 24.9355 19.4865 24.9355 21.8514C24.9355 23.3566 24.3375 24.8003 23.2731 25.8647C22.2087 26.9291 20.7651 27.527 19.2598 27.527C17.7545 27.527 16.3109 26.9291 15.2465 25.8647C14.1821 24.8003 13.5842 23.3566 13.5842 21.8514C13.5842 19.4865 15.0031 17.5 17.0842 16.6486L15.949 15.0405C13.395 16.2703 11.6923 18.8243 11.6923 21.8514C11.6923 23.8584 12.4896 25.7832 13.9088 27.2024C15.3279 28.6216 17.2528 29.4189 19.2598 29.4189C21.2669 29.4189 23.1917 28.6216 24.6109 27.2024C26.0301 25.7832 26.8274 23.8584 26.8274 21.8514C26.8274 18.8243 25.1247 16.2703 22.5706 15.0405Z" fill="white"/>
</svg>
