<svg width="39" height="39" viewBox="0 0 39 39" fill="none" xmlns="http://www.w3.org/2000/svg">
<rect x="0.692261" y="0.5" width="38" height="38" rx="10" fill="#135D54"/>
<path d="M27.6923 27.5H11.6923" stroke="white" stroke-width="1.2" stroke-linecap="round"/>
<path d="M23.6923 27.5V14.7C23.6923 13.1912 23.6923 12.4376 23.2235 11.9688C22.7547 11.5 22.0011 11.5 20.4923 11.5H18.8923C17.3835 11.5 16.6299 11.5 16.1611 11.9688C15.6923 12.4376 15.6923 13.1912 15.6923 14.7V27.5" stroke="white" stroke-width="1.2"/>
<path d="M26.2922 19.1031C26.2922 19.2623 26.3554 19.4149 26.4679 19.5274C26.5805 19.6399 26.7331 19.7031 26.8922 19.7031C27.0513 19.7031 27.204 19.6399 27.3165 19.5274C27.429 19.4149 27.4922 19.2623 27.4922 19.1031H26.2922ZM27.4922 22.3031C27.4922 22.144 27.429 21.9914 27.3165 21.8789C27.204 21.7663 27.0513 21.7031 26.8922 21.7031C26.7331 21.7031 26.5805 21.7663 26.4679 21.8789C26.3554 21.9914 26.2922 22.144 26.2922 22.3031H27.4922ZM24.0922 16.9031C24.6666 16.9031 25.0522 16.9031 25.3458 16.9335C25.6298 16.9623 25.761 17.0135 25.8482 17.0719L26.5146 16.0735C26.1978 15.8623 25.8466 15.7783 25.4674 15.7399C25.0986 15.7023 24.6418 15.7031 24.0922 15.7031V16.9031ZM27.4922 19.1031C27.4922 18.5535 27.4922 18.0967 27.4554 17.7279C27.417 17.3495 27.333 16.9975 27.121 16.6807L26.1234 17.3479C26.1818 17.4343 26.233 17.5655 26.2618 17.8495C26.2914 18.1431 26.2922 18.5295 26.2922 19.1031H27.4922ZM25.8482 17.0711C25.957 17.1447 26.0506 17.2383 26.1234 17.3479L27.121 16.6807C26.961 16.4407 26.7546 16.2343 26.5146 16.0735L25.8482 17.0719V17.0711ZM26.2922 22.3031V27.5031H27.4922V22.3031H26.2922ZM13.0922 25.9031C13.0922 25.744 13.029 25.5914 12.9165 25.4789C12.804 25.3663 12.6513 25.3031 12.4922 25.3031C12.3331 25.3031 12.1805 25.3663 12.0679 25.4789C11.9554 25.5914 11.8922 25.744 11.8922 25.9031H13.0922ZM11.8922 22.7031C11.8922 22.8623 11.9554 23.0149 12.0679 23.1274C12.1805 23.2399 12.3331 23.3031 12.4922 23.3031C12.6513 23.3031 12.804 23.2399 12.9165 23.1274C13.029 23.0149 13.0922 22.8623 13.0922 22.7031H11.8922ZM15.2922 15.7031C14.7426 15.7031 14.2858 15.7031 13.917 15.7399C13.5386 15.7783 13.1866 15.8623 12.8698 16.0735L13.537 17.0719C13.6234 17.0135 13.7546 16.9623 14.0386 16.9335C14.3322 16.9039 14.7186 16.9031 15.2922 16.9031V15.7031ZM13.0922 19.1031C13.0922 18.5287 13.0922 18.1431 13.1226 17.8495C13.1514 17.5655 13.2026 17.4343 13.261 17.3479L12.2626 16.6807C12.0514 16.9975 11.9674 17.3495 11.929 17.7279C11.8914 18.0967 11.8922 18.5535 11.8922 19.1031H13.0922ZM12.8698 16.0735C12.6296 16.2345 12.4232 16.4403 12.2626 16.6807L13.261 17.3479C13.334 17.2387 13.4278 17.1449 13.537 17.0719L12.8698 16.0735ZM11.8922 25.9031V27.5031H13.0922V25.9031H11.8922ZM11.8922 19.1031V22.7031H13.0922V19.1031H11.8922Z" fill="white"/>
<path d="M19.6923 27.4984V25.0984M18.0923 13.8984H21.2923M18.0923 21.0984H18.4923M21.2923 21.0984H20.0923M21.2923 16.2984H20.8923M18.0923 16.2984H19.2923M18.0923 18.6984H21.2923" stroke="white" stroke-width="1.2" stroke-linecap="round"/>
</svg>
